<svg xmlns="http://www.w3.org/2000/svg" width="363.353" height="512" viewBox="0 0 363.353 512"><defs><style>.a{fill:#2c668d;}</style></defs><g transform="translate(-74.322)"><path class="a" d="M272.516,295.953a26.109,26.109,0,0,1-49.548-.025l-.429-1.272-15.657,5.269.429,1.247a42.619,42.619,0,0,0,80.862.025l.429-1.272-15.657-5.269Z"/><path class="a" d="M407.858,200.019l1.85-4.633a159.439,159.439,0,0,0,11.454-59.466,96.5,96.5,0,0,0-28.457-68.7l-5.888-5.9A103.532,103.532,0,0,0,292.2,0h-7.325a103.261,103.261,0,0,0-57.484,17.408L203.9,33.065A93.857,93.857,0,0,0,125.151,80.21l-7.028,12.28-5.962,2.395A60.192,60.192,0,0,0,82.9,181.744l11.47,19.117a33.026,33.026,0,0,0,12.981,63.4h16.937a123.788,123.788,0,0,0,53.537,93.9,71.651,71.651,0,0,0-37.442,63A24.742,24.742,0,0,0,156.9,444.416v34.552A33.065,33.065,0,0,0,189.934,512H305.547a33.065,33.065,0,0,0,33.032-33.032V444.416a24.74,24.74,0,0,0,16.516-23.255,71.682,71.682,0,0,0-37.244-62.91,122.964,122.964,0,0,0,52.331-83.828,57.347,57.347,0,0,0,26.2,6.35,41.176,41.176,0,0,0,11.473-80.754ZM90.839,231.226a16.532,16.532,0,0,1,16.516-16.516h16.516v33.032H107.355a16.533,16.533,0,0,1-16.516-16.516ZM140.387,256V198.194h82.581v66.065H140.809c-.215-2.734-.422-5.468-.422-8.259Zm77.808-99.51,34.494-28.738a52.366,52.366,0,0,1,85.892,40.234v13.692h-177.8a42.109,42.109,0,0,1,31-21.413ZM354.659,264.258H272.516V198.193h66.065v16.516l-5.838-5.838-8.324,8.316a24.482,24.482,0,0,0-10.612-2.477,24.774,24.774,0,1,0,24.774,24.774,24.427,24.427,0,0,0-2.486-10.62l2.651-2.651a57.552,57.552,0,0,0,16.021,36.757c-.034.437-.075.859-.108,1.288Zm-32.594-24.774a8.258,8.258,0,1,1-8.258-8.258A8.267,8.267,0,0,1,322.065,239.484ZM173.419,478.968V445.936h10.909a41.584,41.584,0,0,0,4.459,4.947l-6.656,33.272a23.211,23.211,0,0,0,.033,9.3A16.468,16.468,0,0,1,173.419,478.968Zm115.613,16.516H204.956a6.773,6.773,0,0,1-6.763-6.772,6.535,6.535,0,0,1,.132-1.33l5.459-27.276a41.358,41.358,0,0,0,43.074-9.869l.884-.884.875.875a41.412,41.412,0,0,0,43.091,9.885l5.459,27.268a7.148,7.148,0,0,1,.124,1.33,6.774,6.774,0,0,1-6.763,6.772h-1.5Zm24.287-2.032a23.255,23.255,0,0,0,.033-9.307L306.7,450.882a41.494,41.494,0,0,0,4.459-4.947h10.909v33.032a16.462,16.462,0,0,1-8.745,14.485Zm25.262-72.291a8.267,8.267,0,0,1-8.258,8.258H318.877c.033-.173.116-.33.149-.5l2.882-14.394-16.194-3.245-2.882,14.394a25.268,25.268,0,0,1-24.708,20.265,25.017,25.017,0,0,1-17.821-7.383L247.742,426l-12.561,12.561a25.2,25.2,0,0,1-42.529-12.891l-2.882-14.394-16.194,3.245,2.882,14.394c.033.173.107.33.149.5H165.161a8.267,8.267,0,0,1-8.258-8.258,55.05,55.05,0,0,1,39.251-52.686,122.9,122.9,0,0,0,13.907,5.5l7.358,18.407a32.663,32.663,0,0,0,60.648-.009l7.317-18.316a123.452,123.452,0,0,0,14.163-5.516,55.056,55.056,0,0,1,39.034,52.62ZM229.615,378.393a123.922,123.922,0,0,0,18.126,1.478,125.853,125.853,0,0,0,18.11-1.445l-3.122,7.812a16.138,16.138,0,0,1-29.968.008Zm18.127-15.038c-50.655,0-93.126-35.311-104.357-82.581h79.583a16.532,16.532,0,0,0,16.516-16.516V198.193H256v66.065a16.532,16.532,0,0,0,16.516,16.516h79.748a106.84,106.84,0,0,1-104.522,82.581Zm148.645-99.1a41.337,41.337,0,0,1-41.29-41.29V167.986a68.889,68.889,0,0,0-113-52.918l-24.667,20.563-11.85-23.709-14.774,7.391,11.4,22.784-12.759,1.825a58.556,58.556,0,0,0-46.741,37.764h-2.321A16.532,16.532,0,0,0,123.87,198.2H112.028L97.064,173.254a43.683,43.683,0,0,1,21.223-63.033l11.322-4.525L139.486,88.4a77.306,77.306,0,0,1,56.188-38.061l-5.492,21.975,16.012,4,7.482-29.935,22.875-15.244a86.9,86.9,0,0,1,48.326-14.625H292.2a87.029,87.029,0,0,1,80.078,52.8l.619,1.462,8.118,8.126a80.052,80.052,0,0,1,23.626,57.014,143.015,143.015,0,0,1-10.273,53.331l-3.89,9.736a24.73,24.73,0,0,0,5.9,48.755h8.258V231.229h-8.258a8.258,8.258,0,0,1,0-16.516,24.772,24.772,0,0,1,0,49.545Z"/><path class="a" d="M340.414,83.951a89.457,89.457,0,0,0-99.683-5.145L218.723,92.011l8.5,14.163,22.008-13.205c24.791-14.865,58.162-13.13,81.284,4.195l11.371,8.539,9.9-13.213Z"/><path class="a" d="M371.613,181.677h16.516V167.168a92.266,92.266,0,0,0-27.194-65.652l-11.677,11.677a75.826,75.826,0,0,1,22.355,53.975Z"/><path class="a" d="M206.452,239.484a24.8,24.8,0,0,0-24.774-24.774,24.365,24.365,0,0,0-10.612,2.486l-8.324-8.324-11.677,11.677,8.324,8.324a24.361,24.361,0,0,0-2.486,10.612,24.774,24.774,0,0,0,49.549,0Zm-24.775,8.258a8.258,8.258,0,1,1,8.258-8.258A8.267,8.267,0,0,1,181.677,247.742Z"/></g></svg>