<svg xmlns="http://www.w3.org/2000/svg" width="24.712" height="24.712" viewBox="0 0 24.712 24.712"><defs><style>.a{fill:#babbbc;}</style></defs><path class="a" d="M21.816,1.931H20.658V0H18.727V1.931H5.985V0H4.054V1.931H2.9A2.9,2.9,0,0,0,0,4.827v16.99a2.9,2.9,0,0,0,2.9,2.9h18.92a2.9,2.9,0,0,0,2.9-2.9V4.827A2.9,2.9,0,0,0,21.816,1.931Zm.965,19.886a.966.966,0,0,1-.965.965H2.9a.966.966,0,0,1-.965-.965V9.074H22.782Zm0-14.673H1.931V4.827A.966.966,0,0,1,2.9,3.861H4.054V5.792H5.985V3.861H18.727V5.792h1.931V3.861h1.158a.966.966,0,0,1,.965.965Z"/><g transform="translate(3.745 11.208)"><g transform="translate(0 0)"><rect class="a" width="1.722" height="1.722"/></g></g><g transform="translate(7.763 11.208)"><g transform="translate(0 0)"><rect class="a" width="1.722" height="1.722"/></g></g><g transform="translate(11.208 11.208)"><g transform="translate(0 0)"><rect class="a" width="2.296" height="1.722"/></g></g><g transform="translate(15.227 11.208)"><g transform="translate(0 0)"><rect class="a" width="1.722" height="1.722"/></g></g><g transform="translate(19.245 11.208)"><g transform="translate(0 0)"><rect class="a" width="1.722" height="1.722"/></g></g><g transform="translate(3.745 15.227)"><g transform="translate(0 0)"><rect class="a" width="1.722" height="1.722"/></g></g><g transform="translate(7.763 15.227)"><g transform="translate(0 0)"><rect class="a" width="1.722" height="1.722"/></g></g><g transform="translate(11.208 15.227)"><g transform="translate(0 0)"><rect class="a" width="2.296" height="1.722"/></g></g><g transform="translate(15.227 15.227)"><g transform="translate(0 0)"><rect class="a" width="1.722" height="1.722"/></g></g><g transform="translate(3.745 18.671)"><g transform="translate(0 0)"><rect class="a" width="1.722" height="2.296"/></g></g><g transform="translate(7.763 18.671)"><g transform="translate(0 0)"><rect class="a" width="1.722" height="2.296"/></g></g><g transform="translate(11.208 18.671)"><g transform="translate(0 0)"><rect class="a" width="2.296" height="2.296"/></g></g><g transform="translate(15.227 18.671)"><g transform="translate(0 0)"><rect class="a" width="1.722" height="2.296"/></g></g><g transform="translate(19.245 15.227)"><g transform="translate(0 0)"><rect class="a" width="1.722" height="1.722"/></g></g></svg>