<svg xmlns="http://www.w3.org/2000/svg" width="70" height="70" viewBox="0 0 70 70"><defs><style>.a{fill:#27d5dd;}.b{fill:#24262b;}</style></defs><g transform="translate(9797 -306)"><rect class="a" width="70" height="70" rx="5" transform="translate(-9797 306)"/><g transform="translate(-9782.997 321.111)"><path class="b" d="M220.253,50.274a3,3,0,1,0-3-3,3,3,0,0,0,3,3Zm0-5.023a2.02,2.02,0,1,1-2.02,2.02A2.02,2.02,0,0,1,220.253,45.251Z" transform="translate(-199.88 -41.867)"/><path class="b" d="M58.211,117.933a.537.537,0,1,0,.557.537A.548.548,0,0,0,58.211,117.933Z" transform="translate(-53.381 -109.502)"/><path class="b" d="M89.865,118.425a.491.491,0,0,0-.491-.491H81.615a.491.491,0,0,0,0,.982h7.759A.491.491,0,0,0,89.865,118.425Z" transform="translate(-74.894 -109.503)"/><path class="b" d="M44.495,50.343V48.809a1.416,1.416,0,0,0-1.414-1.414h-.963v-.882a1.415,1.415,0,0,0-.935-1.329L40.748,30.7a2.03,2.03,0,0,0,1.915-2.032v-.3H44a.491.491,0,0,0,.491-.491V24.076a1.459,1.459,0,0,0-.872-1.364L26.682,15.163a2.8,2.8,0,0,0-2.278,0L7.463,22.712a1.459,1.459,0,0,0-.872,1.364v3.806a.491.491,0,0,0,.491.491h.945v.3a2.03,2.03,0,0,0,2.02,2.037h.108L9.72,45.185a1.415,1.415,0,0,0-.935,1.328v.882H8A1.416,1.416,0,0,0,6.59,48.809v1.534A1.858,1.858,0,0,0,5,52.179v1.713a.491.491,0,0,0,.491.491h40.1a.491.491,0,0,0,.491-.491V52.179A1.858,1.858,0,0,0,44.495,50.343Zm-3.359-3.83v.882H36.69v-.882a.433.433,0,0,1,.432-.432H40.7a.433.433,0,0,1,.432.432Zm-8.927-1.328L31.774,30.7a2.03,2.03,0,0,0,1.915-2.032v-.3h1.26v.3a2.03,2.03,0,0,0,2.02,2.037h.108l-.435,14.479a1.415,1.415,0,0,0-.935,1.329V47.4H33.143v-.882A1.415,1.415,0,0,0,32.208,45.185Zm-8.974,0L22.8,30.7a2.03,2.03,0,0,0,1.915-2.032v-.3h1.261v.3A2.03,2.03,0,0,0,28,30.706H28.1l-.435,14.479a1.415,1.415,0,0,0-.935,1.329V47.4H24.169v-.882a1.415,1.415,0,0,0-.934-1.328Zm-8.974,0L13.825,30.7a2.03,2.03,0,0,0,1.915-2.032v-.3H17v.3a2.03,2.03,0,0,0,2.02,2.037h.108l-.435,14.479a1.415,1.415,0,0,0-.935,1.328v.882H15.194v-.882A1.415,1.415,0,0,0,14.26,45.185Zm4.763-15.46a1.047,1.047,0,0,1-1.04-1.053v-.3h5.749v.3a1.046,1.046,0,0,1-1.038,1.05ZM22.249,45.1h-2.57l.432-14.393h1.705Zm-3.508,1.414a.433.433,0,0,1,.432-.432h3.581a.433.433,0,0,1,.432.432v.882H18.741ZM28,29.724a1.047,1.047,0,0,1-1.04-1.053v-.3h5.749v.3a1.046,1.046,0,0,1-1.038,1.05ZM31.223,45.1h-2.57l.432-14.393h1.705Zm-3.508,1.414a.433.433,0,0,1,.432-.432h3.581a.433.433,0,0,1,.432.432v.882H27.716ZM37.628,45.1l.432-14.393h1.705L40.2,45.1Zm4.053-16.426a1.046,1.046,0,0,1-1.038,1.05H36.972a1.048,1.048,0,0,1-1.04-1.053v-.3h5.749ZM7.572,27.39V26.064H9.921a.491.491,0,0,0,0-.982H7.572V24.076a.48.48,0,0,1,.26-.454l.021-.009L24.8,16.061a1.82,1.82,0,0,1,1.479,0l16.95,7.552.021.009a.48.48,0,0,1,.26.454v1.006H13.358a.491.491,0,1,0,0,.982H43.513V27.39Zm2.477,2.334a1.047,1.047,0,0,1-1.04-1.053v-.3h5.749v.3a1.046,1.046,0,0,1-1.038,1.05ZM13.275,45.1H10.7l.433-14.393h1.705ZM9.767,46.513a.433.433,0,0,1,.432-.432H13.78a.433.433,0,0,1,.432.432v.882H9.767Zm-2.2,2.3A.432.432,0,0,1,8,48.377H43.081a.432.432,0,0,1,.432.432v1.514H7.572ZM45.1,53.4H5.982V52.179a.874.874,0,0,1,.873-.873H44.229a.874.874,0,0,1,.873.873Z" transform="translate(-5 -14.922)"/></g></g></svg>