<svg xmlns="http://www.w3.org/2000/svg" width="587.313" height="511.997" viewBox="0 0 587.313 511.997"><defs><style>.a{fill:#2c668d;}</style></defs><g transform="translate(0 -32.83)"><g transform="translate(373.649 213.412)"><path class="a" d="M348.278,190.255H335.164a9.43,9.43,0,1,0,0,18.861h13.114a9.43,9.43,0,1,0,0-18.861Z" transform="translate(-325.734 -190.255)"/></g><g transform="translate(458.791 172.856)"><path class="a" d="M453.547,165.427a35.939,35.939,0,0,0-50.827,0,9.43,9.43,0,1,0,13.336,13.336,17.079,17.079,0,0,1,24.153,0,9.43,9.43,0,1,0,13.337-13.336Z" transform="translate(-399.958 -154.9)"/></g><g transform="translate(361.461 172.873)"><g transform="translate(0 0)"><path class="a" d="M368.7,165.425a35.98,35.98,0,0,0-50.828,0,9.43,9.43,0,0,0,13.336,13.336,17.079,17.079,0,0,1,24.153,0A9.431,9.431,0,1,0,368.7,165.425Z" transform="translate(-315.109 -154.914)"/></g></g><g transform="translate(470.98 213.412)"><path class="a" d="M433.128,190.255H420.014a9.43,9.43,0,1,0,0,18.861h13.114a9.43,9.43,0,1,0,0-18.861Z" transform="translate(-410.584 -190.255)"/></g><g transform="translate(289.286 43.971)"><path class="a" d="M550.218,202.094A34.986,34.986,0,0,0,520.1,167.5l-.532-5.507,6.737,1.186a9.43,9.43,0,0,0,3.269-18.575l-12.088-2.128c-.506-3.325-1.136-6.619-1.917-9.867l3.539.578a9.532,9.532,0,0,0,1.533.125,9.431,9.431,0,0,0,1.511-18.739l-13.443-2.2A117.673,117.673,0,0,0,339.06,60.286a9.431,9.431,0,1,0,9.974,16.01,98.75,98.75,0,0,1,136.7,32.806,9.429,9.429,0,0,0-.077,18.623l9.347,1.528a98.617,98.617,0,0,1,2.662,9.782,9.428,9.428,0,0,0-2.42,18.68l5.039.888,7.019,72.631a72.745,72.745,0,0,1-17.061,54.436,143.674,143.674,0,0,1-10.343-10c-9.14-9.438-19.5-20.137-35.724-26.82-9.95-4.093-18.436-4.836-25.389-3.967V221.6a9.43,9.43,0,0,0-18.861,0v29.156c-.473-.311-.954-.61-1.445-.894-8.1-4.686-21.656-8.666-40.257-1.006-16.228,6.682-26.589,17.381-35.729,26.82-3.893,4.022-7.212,7.377-10.345,10a72.8,72.8,0,0,1-17.061-54.44l7.019-72.629,5.043-.888a9.428,9.428,0,0,0-2.423-18.68,99.239,99.239,0,0,1,2.677-9.785l9.334-1.526a9.429,9.429,0,0,0-.056-18.621,98.484,98.484,0,0,1,14.874-18.975,9.43,9.43,0,1,0-13.294-13.379,117.62,117.62,0,0,0-24.508,35.621l-13.507,2.207a9.431,9.431,0,1,0,3.043,18.614l3.569-.584q-1.18,4.881-1.943,9.872L272.83,144.61a9.431,9.431,0,0,0,1.623,18.719,9.579,9.579,0,0,0,1.646-.145L282.834,162,282.3,167.5a34.943,34.943,0,0,0-6.356,67.711A91.422,91.422,0,0,0,293.68,292.74a9.424,9.424,0,0,0-2.857,16.511,106.775,106.775,0,0,0,15.868,9.8c.022.208.049.422.075.632a83.629,83.629,0,0,0-39.615,71.3V533.967a9.431,9.431,0,0,0,9.43,9.43H525.826a9.431,9.431,0,0,0,9.43-9.43V390.985a83.668,83.668,0,0,0-13.885-46.253,9.43,9.43,0,1,0-15.737,10.4A64.864,64.864,0,0,1,516.4,390.984v133.55H485.51V391.851a9.43,9.43,0,1,0-18.861,0v132.68H410.635V403.486l21.681-25.747.334,1.068a9.43,9.43,0,0,0,12.048,6.112c26.257-8.966,40.023-28.635,46.479-46.494a9.418,9.418,0,0,0,7.088-17.051c-.853-.577-1.75-1.115-2.634-1.666.025-.22.054-.444.077-.662a106.519,106.519,0,0,0,15.865-9.8,9.424,9.424,0,0,0-2.856-16.511,91.376,91.376,0,0,0,17.738-57.527A34.855,34.855,0,0,0,550.218,202.094ZM277.7,215.137a16.074,16.074,0,0,1,2.667-27.606ZM391.777,524.531H335.748V391.851a9.43,9.43,0,1,0-18.861,0v132.68H286.015V390.981a64.839,64.839,0,0,1,25.529-51.711c6.586,17.63,20.328,36.825,46.171,45.649a9.43,9.43,0,0,0,12.049-6.112l.333-1.068,21.681,25.747Zm55.756-161.343-2.342-7.5a9.432,9.432,0,0,0-16.215-3.263L401.207,385.4,373.44,352.428a9.432,9.432,0,0,0-16.215,3.263l-2.346,7.507c-17.106-9.188-24.347-24.564-27.417-35.909,14.43,4.244,34.313,7.148,52.473-.341a51.282,51.282,0,0,0,21.271-16.113,51.227,51.227,0,0,0,21.261,16.112,64.7,64.7,0,0,0,24.777,4.623,99.281,99.281,0,0,0,27.628-4.265C471.766,338.646,464.511,354.024,447.533,363.188Zm35.233-58.839c-19.67,8.835-39.524,10.762-53.107,5.162-9.165-3.78-15.59-10.753-19.646-21.321a9.43,9.43,0,0,0-8.8-6.052h0a9.428,9.428,0,0,0-8.8,6.051c-4.058,10.568-10.488,17.544-19.656,21.323-13.585,5.6-33.44,3.671-53.1-5.161q-.308-.138-.614-.278c6.3-4.214,11.7-9.8,17.016-15.283,8.242-8.513,16.765-17.314,29.361-22.5,9.232-3.8,17.182-3.84,23.626-.11a11.929,11.929,0,0,1,4.188,4.064,9.434,9.434,0,0,0,7.984,4.443h.022a9.427,9.427,0,0,0,7.98-4.407,12.621,12.621,0,0,1,4.657-4.38c6.34-3.445,14.123-3.316,23.135.391,12.589,5.186,21.112,13.988,29.354,22.5,5.312,5.487,10.716,11.068,17.02,15.282ZM524.7,215.137l-2.667-27.6a16.069,16.069,0,0,1,2.667,27.6Z" transform="translate(-252.189 -42.542)"/></g><g transform="translate(14.96 361.85)"><path class="a" d="M237,320.791a9.43,9.43,0,1,0-8.957,16.6,65.1,65.1,0,0,1,34.241,57.348v89.031H231.4V395.6a9.43,9.43,0,1,0-18.861,0v88.167H81.637V395.6a9.43,9.43,0,1,0-18.861,0v88.167H31.9V448.43a9.43,9.43,0,1,0-18.861,0V493.2a9.431,9.431,0,0,0,9.43,9.43H271.716a9.431,9.431,0,0,0,9.43-9.43v-98.46A83.943,83.943,0,0,0,237,320.791Z" transform="translate(-13.042 -319.658)"/></g><g transform="translate(91.348 391.337)"><path class="a" d="M185.541,345.364a9.431,9.431,0,0,0-9.43,9.43,38.808,38.808,0,1,1-77.616,0,9.43,9.43,0,0,0-18.861,0,57.67,57.67,0,1,0,115.34,0A9.434,9.434,0,0,0,185.541,345.364Z" transform="translate(-79.634 -345.364)"/></g><g transform="translate(0 32.83)"><path class="a" d="M298.023,244.8A34.983,34.983,0,0,0,267.908,210.2l-1.8-18.631a117.652,117.652,0,0,0-55.743-89.063A61.857,61.857,0,0,0,88.415,82.224a9.43,9.43,0,1,0,18.477,3.782,42.992,42.992,0,0,1,85.078,7.361A117.645,117.645,0,0,0,31.917,191.575l-1.8,18.63a34.942,34.942,0,0,0-6.351,67.713A92.565,92.565,0,0,0,61.7,355.548l5.176,3.761A84.145,84.145,0,0,0,14.96,436.931V463.3a9.43,9.43,0,0,0,18.861,0V436.931a65.177,65.177,0,0,1,52.077-63.8l20.675,15.021a72.019,72.019,0,0,0,84.876,0l44.873-32.6a92.563,92.563,0,0,0,37.936-77.633A34.863,34.863,0,0,0,298.023,244.8ZM25.513,257.844a16.075,16.075,0,0,1,2.668-27.611Zm57.1-128.085a98.779,98.779,0,0,1,164.726,63.63l.212,2.2c-38.869-6.69-61.519-48.616-61.755-49.064a9.431,9.431,0,0,0-8.292-5.047h-.056a9.434,9.434,0,0,0-8.3,4.946c-.257.474-25.892,45.767-117.114,37.71A98.547,98.547,0,0,1,82.608,129.759ZM49.776,202.853c74.595,6.747,111.5-19.411,126.852-35.6,11.57,16.3,36.222,43.8,72.783,47.631l1.747,18.07-18.694,16.126a40.031,40.031,0,0,0-75.045,7.8H140.606a40.031,40.031,0,0,0-75.045-7.8L46.867,232.951ZM217.5,266.306a21.179,21.179,0,1,1-21.179-21.179A21.2,21.2,0,0,1,217.5,266.306Zm-94.628,0A21.178,21.178,0,1,1,101.7,245.127,21.2,21.2,0,0,1,122.877,266.306Zm102.361,73.982-44.873,32.6a53.205,53.205,0,0,1-62.705,0l-44.874-32.6a73.592,73.592,0,0,1-29.877-66.357l1.738-17.985,17.28,14.908a40.032,40.032,0,0,0,78.681,4.881h10.215v17.732h-6.967a9.43,9.43,0,0,0,0,18.861h16.4a9.431,9.431,0,0,0,9.43-9.43v-6.738a40,40,0,0,0,66.417-25.3l17.28-14.908,1.738,17.985A73.59,73.59,0,0,1,225.239,340.288Zm47.273-82.449-2.667-27.6a16.068,16.068,0,0,1,2.667,27.6Z" transform="translate(0 -32.83)"/></g><g transform="translate(117.941 320.274)"><path class="a" d="M162.2,286.176a9.433,9.433,0,0,0-13.338,0,21.2,21.2,0,0,1-29.946,0,9.43,9.43,0,0,0-13.336,13.336,40.084,40.084,0,0,0,56.621,0A9.429,9.429,0,0,0,162.2,286.176Z" transform="translate(-102.817 -283.414)"/></g><g transform="translate(180.339 251.41)"><path class="a" d="M179.757,223.38H166.643a9.43,9.43,0,0,0,0,18.861h13.114a9.43,9.43,0,0,0,0-18.861Z" transform="translate(-157.213 -223.38)"/></g><g transform="translate(85.712 251.41)"><path class="a" d="M97.265,223.38H84.151a9.43,9.43,0,1,0,0,18.861H97.265a9.43,9.43,0,1,0,0-18.861Z" transform="translate(-74.721 -223.38)"/></g><g transform="translate(455.676 413.726)"><circle class="a" cx="9.43" cy="9.43" r="9.43"/></g><g transform="translate(455.676 452.418)"><circle class="a" cx="9.43" cy="9.43" r="9.43"/></g><g transform="translate(455.676 491.109)"><circle class="a" cx="9.43" cy="9.43" r="9.43"/></g></g></svg>