<svg xmlns="http://www.w3.org/2000/svg" width="33.137" height="30.928" viewBox="0 0 33.137 30.928"><defs><style>.a{fill:#fcfcfc;}</style></defs><path class="a" d="M77.545,99.214a.552.552,0,0,0-.764,0L64.073,111.355a.552.552,0,0,0-.171.4l0,11.395a2.209,2.209,0,0,0,2.209,2.209h6.634a1.1,1.1,0,0,0,1.1-1.1v-9.389a.552.552,0,0,1,.552-.552h5.523a.552.552,0,0,1,.552.552v9.389a1.1,1.1,0,0,0,1.1,1.1h6.632a2.209,2.209,0,0,0,2.209-2.209V111.755a.552.552,0,0,0-.171-.4Z" transform="translate(-60.593 -94.431)"/><path class="a" d="M48.785,46.646l-5.164-4.94v-7.5a1.1,1.1,0,0,0-1.1-1.1H39.2a1.1,1.1,0,0,0-1.1,1.1v2.209l-4-3.823a2.264,2.264,0,0,0-3.06,0L16.356,46.644a1.126,1.126,0,0,0-.093,1.544,1.1,1.1,0,0,0,1.6.073L32.188,34.574a.552.552,0,0,1,.764,0L47.278,48.262a1.1,1.1,0,0,0,1.56-.03A1.132,1.132,0,0,0,48.785,46.646Z" transform="translate(-16 -32)"/></svg>