<svg xmlns="http://www.w3.org/2000/svg" width="70" height="70" viewBox="0 0 70 70"><defs><style>.a{fill:#c5c5c5;}.b{fill:#24262b;}</style></defs><g transform="translate(9953 -306)"><rect class="a" width="70" height="70" rx="5" transform="translate(-9953 306)"/><g transform="translate(-9941.582 320.553)"><path class="b" d="M195.6,557.2c-2.763-2.522-5.623-3.767-8.6-3.767a8.575,8.575,0,0,0,0,17.151c4.577,0,8.9-2.961,12.986-8.976,4.323-6.372,9.047-9.6,14.169-9.6a10,10,0,1,1,0,20.009c-3.712,0-7.223-1.7-10.516-5.064a.715.715,0,0,1,1.021-1c3.04,3.1,6.2,4.635,9.494,4.635a8.575,8.575,0,0,0,0-17.151c-4.577,0-8.9,2.961-12.986,8.976-4.323,6.372-9.047,9.6-14.169,9.6A10,10,0,1,1,187,552a13.908,13.908,0,0,1,9.29,3.9v-3.184a.715.715,0,0,1,1.429,0v5a.714.714,0,0,1-.614.707l-5,.715a.715.715,0,1,1-.2-1.415ZM182,543.429v5a.715.715,0,0,1-1.429,0v-5.717a.715.715,0,0,1,.715-.715H187a.715.715,0,1,1,0,1.429Zm37.16,0h-5a.715.715,0,1,1,0-1.429h5.717a.715.715,0,0,1,.715.715v5.717a.715.715,0,0,1-1.429,0ZM182,580.589h5a.715.715,0,0,1,0,1.429h-5.717a.715.715,0,0,1-.715-.715v-5.717a.715.715,0,0,1,1.429,0Zm37.16,0v-5a.715.715,0,0,1,1.429,0V581.3a.715.715,0,0,1-.715.715H214.16a.715.715,0,1,1,0-1.429Z" transform="translate(-177 -542)"/></g></g></svg>