<svg xmlns="http://www.w3.org/2000/svg" width="475.157" height="439.314" viewBox="0 0 475.157 439.314"><defs><style>.a{fill:#2c668d;}.b{fill:none;stroke:#2c668d;stroke-width:16px;}</style></defs><g transform="translate(10147 -643.558)"><g transform="translate(-10147 645.332)"><circle class="a" cx="12" cy="12" r="12" transform="translate(320 73.883)"/><path class="a" d="M419.742,81.883c-18.531,0-34.438,1.3-49.8-14.059L350.058,47.942a48,48,0,0,0-33.942-14.059H259.96a48.188,48.188,0,0,0-34.019,14.058l-.293.292L188.2,85.685A41.634,41.634,0,0,0,176,115.127V127.7c0,22.778,18.078,46.274,40.61,49.634a50.164,50.164,0,0,0,7.39.552v3.2C184.57,203.8,103.668,249.627,87.649,265.526,74.168,279.012,64,300.333,64,321.883A74.783,74.783,0,0,0,70.851,354L24,353.883a24,24,0,0,0,0,48H223.762c11.886,0,20.125-12.764,14.379-23.168a48.229,48.229,0,0,0-22.973-20.89c5.5-10.916,8.687-19.95,22.473-19.95H256v48.008a16,16,0,0,0,16,16h59.527c12.27,0,20.2-13.382,14-23.977a48.13,48.13,0,0,0-35.606-23.426l3.558-28.466c19.234-11.806,33.406-31.422,37.3-54.13,5.453-31.775-8.074-60.472-30.789-77.638V161.882h48c17.6,0,39.41-12.349,48.465-27.442,3.817-6.358,19.34-29.415,19.3-36.614A16.016,16.016,0,0,0,419.742,81.883ZM223.93,161.712c-19.562,0-31.93-16.571-31.93-33.608V115.131A25.5,25.5,0,0,1,199.508,97l37.453-37.451A32.689,32.689,0,0,1,256,50.287v79.6A31.877,31.877,0,0,1,223.93,161.712ZM24,385.883a8,8,0,0,1-.043-16l56.554.146c5.926,7.782,6.89,9.1,15.965,15.854ZM402.746,126.209c-6.493,10.82-22.13,19.674-34.746,19.674H327.191a23.967,23.967,0,0,1-22.527-16H288a39.958,39.958,0,0,0,16,24.406V202.21c23.047,17.422,36.117,37.266,31.019,66.968-4.05,23.585-18.317,36.087-36.457,47.222-3.844,30.751-5.008,40.05-6.5,51.981,16.137,2.009,30.672,2.04,39.465,17.5H272v-80H256v15.992H237.641a35.576,35.576,0,0,0-13.91,3.155,80.274,80.274,0,0,0-23.168-59.718L189.25,276.626c23.722,23.734,22.27,58.453,8.75,79.633l-4.8,9.483c12.446,5.4,24.375,8.767,30.558,20.142H143.952a63.822,63.822,0,0,1-37.945-115.175c17.61-13.117,114.966-69.42,133.993-80.384,0-4.351.008-11.243-.012-15.378A47.861,47.861,0,0,0,272,129.883v-80h44.121a31.991,31.991,0,0,1,22.625,9.372l19.879,19.881A63.42,63.42,0,0,0,400.992,97.6a22.451,22.451,0,0,0,10.844,13.459Z"/></g><line class="b" x2="428" y2="428" transform="translate(-10105.5 649.215)"/></g></svg>