<svg xmlns="http://www.w3.org/2000/svg" width="542.264" height="542.264" viewBox="0 0 542.264 542.264"><defs><style>.a{fill:none;stroke:#2c668d;stroke-width:23px;}.b{fill:#2c668d;}</style></defs><g transform="translate(12173.632 -2317.868)"><line class="a" x2="526" y2="526" transform="translate(-12165.5 2326)"/><g transform="translate(-12202.916 2345.003)"><path class="b" d="M339.69,439.524a16.036,16.036,0,0,0-22.672.646,125.655,125.655,0,0,1-92.208,39.752,126.831,126.831,0,0,1-67.049-234.481,16.039,16.039,0,1,0-16.987-27.211A158.113,158.113,0,0,0,65.916,353.107C65.917,440.72,137.2,512,224.81,512a157.436,157.436,0,0,0,115.527-49.8A16.038,16.038,0,0,0,339.69,439.524Z"/><path class="b" d="M441.973,426.023,362.849,338a16.04,16.04,0,0,0-11.927-5.316H234.307V174.441H350.922a16.039,16.039,0,1,0,0-32.078H218.268A16.039,16.039,0,0,0,202.229,158.4V348.726a16.039,16.039,0,0,0,16.039,16.039H343.775l74.344,82.7a16.038,16.038,0,1,0,23.854-21.445Z"/><path class="b" d="M257.628,0a55.957,55.957,0,1,0,55.956,55.956A56.019,56.019,0,0,0,257.628,0Zm0,79.837a23.879,23.879,0,1,1,23.879-23.88A23.907,23.907,0,0,1,257.628,79.837Z"/></g></g></svg>