<svg xmlns="http://www.w3.org/2000/svg" width="24.712" height="24.712" viewBox="0 0 24.712 24.712"><defs><style>.a{fill:#babbbc;}</style></defs><path class="a" d="M9.65,17.369h3.281V19.3H9.65Zm-3.619-.241a1.206,1.206,0,1,0,1.206,1.206A1.206,1.206,0,0,0,6.031,17.128ZM19.4,11.241H9.65v1.93H19.4ZM6.031,11a1.206,1.206,0,1,0,1.206,1.206A1.206,1.206,0,0,0,6.031,11ZM19.4,5.451H9.65v1.93H19.4ZM6.031,5.21A1.206,1.206,0,1,0,7.237,6.416,1.206,1.206,0,0,0,6.031,5.21Zm-4.1,16.6V2.894a.966.966,0,0,1,.965-.965H21.81a.966.966,0,0,1,.965.965V13.8H24.7V2.894A2.9,2.9,0,0,0,21.81,0H2.895A2.9,2.9,0,0,0,0,2.894V21.809a2.9,2.9,0,0,0,2.9,2.9H14.041v-1.93H2.895a.966.966,0,0,1-.965-.965Zm21.417,2.9-1.922-1.922a4.348,4.348,0,1,1,1.4-1.332l1.889,1.889ZM19.2,21.471a2.413,2.413,0,1,0-2.413-2.413A2.415,2.415,0,0,0,19.2,21.471Zm0,0" transform="translate(0 0.002)"/></svg>