<svg xmlns="http://www.w3.org/2000/svg" width="144.37" height="35.961" viewBox="0 0 144.37 35.961"><defs><style>.a,.f{fill:#6fccdf;}.a{font-size:18px;font-family:SegoeUI-Bold, Segoe UI;font-weight:700;}.b{fill:#fff;font-size:14px;font-family:ReenieBeanie, Reenie Beanie;}.c{fill:#38ba90;}.c,.d,.e,.f{fill-rule:evenodd;}.d{fill:#e21666;}.e{fill:#eaaa22;}</style></defs><g transform="translate(7658.659 -112.47)"><g transform="translate(-7629.119 112.47)"><text class="a" transform="translate(0 19)"><tspan x="0" y="0">WhatToDo</tspan></text><text class="b" transform="matrix(0.995, -0.105, 0.105, 0.995, 79.604, 31.983)"><tspan x="0" y="0">FAMILY</tspan></text></g><g transform="translate(-7658.711 115.464) rotate(-3)"><path class="c" d="M7.439,6.261a1.846,1.846,0,1,1-1.32,2.252,1.845,1.845,0,0,1,1.32-2.252ZM2.9,9.407a9.315,9.315,0,0,1,6.622-6.5A1.477,1.477,0,0,0,8.774.048,12.283,12.283,0,0,0,.055,8.611a1.476,1.476,0,1,0,2.843.8Z" transform="translate(0.052 0)"/><path class="d" d="M6.261,3.185A1.846,1.846,0,1,1,8.513,4.5a1.846,1.846,0,0,1-2.252-1.32ZM10.484,9.2A1.476,1.476,0,0,0,9.407,7.726,9.312,9.312,0,0,1,5.275,5.284,9.324,9.324,0,0,1,2.906,1.1,1.477,1.477,0,0,0,.048,1.85a12.268,12.268,0,0,0,3.118,5.5,12.277,12.277,0,0,0,4.379,2.869l.049,4.649a1.474,1.474,0,0,0,2.547,1L15.7,10.238A1.474,1.474,0,0,0,13.606,8.16l-3.1,3.138Z" transform="translate(0 13.175)"/><path class="e" d="M2.312,4.224a1.846,1.846,0,1,1,1.32-2.252,1.845,1.845,0,0,1-1.32,2.252ZM6.853,1.078a9.313,9.313,0,0,1-1.113,2.5,9.317,9.317,0,0,1-1.8,2.063A1.473,1.473,0,0,0,5.851,7.888,12.272,12.272,0,0,0,8.216,5.163,12.273,12.273,0,0,0,9.7,1.874a1.476,1.476,0,1,0-2.843-.8Z" transform="translate(14.047 13.366)"/><path class="f" d="M4.224,7.439a1.846,1.846,0,1,1-2.252-1.32,1.846,1.846,0,0,1,2.252,1.32ZM1.078,2.9A9.314,9.314,0,0,1,5.211,5.34,9.321,9.321,0,0,1,7.579,9.52a1.477,1.477,0,0,0,2.858-.746,12.262,12.262,0,0,0-3.118-5.5A12.271,12.271,0,0,0,1.874.055a1.476,1.476,0,1,0-.8,2.843Z" transform="translate(13.366 0.052)"/></g></g></svg>