<svg xmlns="http://www.w3.org/2000/svg" viewBox="0 0 163.06 163.06"><defs><style>.cls-1{fill:#414042;}</style></defs><g id="Calque_2" data-name="Calque 2"><g id="Layer_1" data-name="Layer 1"><path class="cls-1" d="M32.47,101.81a53.31,53.31,0,1,0-4-20.28A53.16,53.16,0,0,0,32.47,101.81Zm4.89-38.57a47.84,47.84,0,0,1,88.34,0,47.78,47.78,0,1,1-88.34,0Z"/><path class="cls-1" d="M81.53,22.06a2.66,2.66,0,0,0,2.64-2.65V2.64a2.64,2.64,0,1,0-5.28,0V19.41A2.65,2.65,0,0,0,81.53,22.06Z"/><path class="cls-1" d="M48.18,29.06a2.65,2.65,0,0,0,4.59-2.64l-8.4-14.54a2.64,2.64,0,0,0-4.57,2.64Z"/><path class="cls-1" d="M11.88,44.37l14.54,8.4a2.65,2.65,0,0,0,2.64-4.59L14.52,39.8a2.64,2.64,0,0,0-2.64,4.57Z"/><path class="cls-1" d="M22.05,81.53a2.64,2.64,0,0,0-2.64-2.64H2.64a2.64,2.64,0,1,0,0,5.28H19.41A2.65,2.65,0,0,0,22.05,81.53Z"/><path class="cls-1" d="M30,111.25a2.63,2.63,0,0,0-3.6-1l-14.54,8.38a2.65,2.65,0,0,0,2.64,4.59l14.54-8.39A2.65,2.65,0,0,0,30,111.25Z"/><path class="cls-1" d="M44.37,151.16l8.4-14.52a2.68,2.68,0,0,0-1-3.62,2.65,2.65,0,0,0-3.61,1L39.8,148.52a2.64,2.64,0,1,0,4.57,2.64Z"/><path class="cls-1" d="M84.17,160.42V143.63a2.64,2.64,0,0,0-5.28,0v16.79a2.64,2.64,0,1,0,5.28,0Z"/><path class="cls-1" d="M122.29,152.14a2.67,2.67,0,0,0,1-3.62L114.87,134a2.64,2.64,0,1,0-4.58,2.64l8.38,14.52A2.66,2.66,0,0,0,122.29,152.14Z"/><path class="cls-1" d="M152.14,122.29a2.66,2.66,0,0,0-1-3.62l-14.52-8.38a2.64,2.64,0,1,0-2.64,4.58l14.52,8.39A2.67,2.67,0,0,0,152.14,122.29Z"/><path class="cls-1" d="M160.42,78.89H143.63a2.64,2.64,0,1,0,0,5.28h16.79a2.64,2.64,0,1,0,0-5.28Z"/><path class="cls-1" d="M136.64,52.77l14.52-8.4a2.64,2.64,0,1,0-2.64-4.57L134,48.18a2.65,2.65,0,0,0-1,3.61A2.68,2.68,0,0,0,136.64,52.77Z"/><path class="cls-1" d="M111.27,30a2.64,2.64,0,0,0,3.6-1l8.39-14.54a2.65,2.65,0,0,0-4.59-2.64l-8.38,14.54A2.62,2.62,0,0,0,111.27,30Z"/></g></g></svg>