<svg xmlns="http://www.w3.org/2000/svg" viewBox="0 0 146.37 137.09"><defs><style>.cls-1{fill:#414042;}</style></defs><g id="Calque_2" data-name="Calque 2"><g id="Layer_1" data-name="Layer 1"><path class="cls-1" d="M139.69,42.93a28.69,28.69,0,0,0-13.49-9A37.78,37.78,0,0,0,109.84,6.52,38,38,0,0,0,98.9,1.43,37.1,37.1,0,0,0,86.93,0,37.76,37.76,0,0,0,58.52,15a26,26,0,0,0-3.22-.45,28.52,28.52,0,0,0-5.06.06,27.9,27.9,0,0,0-5.72,1.16,28.36,28.36,0,0,0-5.32,2.31,29.27,29.27,0,0,0-4.76,3.37,28.28,28.28,0,0,0-3.95,4.25A28,28,0,0,0,27.81,30c-.47.93-.88,1.91-1.26,2.88A28.79,28.79,0,0,0,.17,58.49c-.06.5-.09,1-.13,1.57s0,1,0,1.63a32.58,32.58,0,0,0,1.41,9.5,31,31,0,0,0,4.1,8.55,24.84,24.84,0,0,0,7,6.87,20.54,20.54,0,0,0,8.79,3.11c.32,0,.69.08,1.07.1s.67,0,1.1,0h7.46a2.64,2.64,0,0,0,0-5.28H23.46l-.84,0-.77-.07a15.2,15.2,0,0,1-6.52-2.33,19.61,19.61,0,0,1-5.49-5.41,25.91,25.91,0,0,1-3.39-7.09,27.84,27.84,0,0,1-1.18-8q0-.61,0-1.35t.12-1.29A23.15,23.15,0,0,1,8,50.64a23.63,23.63,0,0,1,5.49-6.88,24,24,0,0,1,7-4.2,23.52,23.52,0,0,1,8-1.52c1.89,0,1.93,0,2.49-1.87a21.42,21.42,0,0,1,1.52-3.82,23,23,0,0,1,2.17-3.49,23.87,23.87,0,0,1,3.21-3.45,23.29,23.29,0,0,1,8.21-4.61,23,23,0,0,1,4.62-.95,23.8,23.8,0,0,1,4.14,0A23.08,23.08,0,0,1,59,20.5c1.88.51,1.8.49,2.87-1.06a32.48,32.48,0,0,1,57.32,7.13,33,33,0,0,1,2,9.54c.11,2.36.11,2,2,2.46a23.28,23.28,0,0,1,16.57,14.76,23.15,23.15,0,0,1,1.4,8v.13a3,3,0,0,1,0,.41A24.76,24.76,0,0,1,139.43,70a26.29,26.29,0,0,1-4.19,7.38,20.87,20.87,0,0,1-6.71,5.51A16.72,16.72,0,0,1,121,84.78h-4.63a.9.9,0,0,0-.23,0h-4.57a2.64,2.64,0,0,0,0,5.28h8.69c.49,0,.89,0,1.39,0a22.21,22.21,0,0,0,9.28-2.42,26.33,26.33,0,0,0,8.41-6.91,31.95,31.95,0,0,0,7-18.78v-.6s0,0,0-.05a28.74,28.74,0,0,0-6.68-18.37Z"/><path class="cls-1" d="M97,94.28q-.75,2.55-1.52,5.07a2.64,2.64,0,0,0,5.06,1.52c.51-1.7,1-3.39,1.52-5.08A2.64,2.64,0,1,0,97,94.28Z"/><path class="cls-1" d="M91.84,111.44c-.51,1.71-1,3.39-1.5,5.08A2.64,2.64,0,1,0,95.4,118c.5-1.71,1-3.39,1.52-5.08a2.65,2.65,0,0,0-5.08-1.52Z"/><path class="cls-1" d="M51.1,111.44c-.51,1.71-1,3.39-1.52,5.08A2.65,2.65,0,1,0,54.66,118c.49-1.71,1-3.39,1.5-5.08a2.64,2.64,0,0,0-5.06-1.52Z"/><path class="cls-1" d="M105.37,75.33a2.66,2.66,0,0,0-3.28,1.78l-1.52,5.08a2.65,2.65,0,0,0,5.08,1.5l1.5-5.06A2.65,2.65,0,0,0,105.37,75.33Z"/><path class="cls-1" d="M86.72,128.62q-.75,2.53-1.52,5.06a2.65,2.65,0,1,0,5.08,1.52c.51-1.69,1-3.39,1.52-5.08a2.65,2.65,0,0,0-5.08-1.5Z"/><path class="cls-1" d="M46,128.62c-.5,1.69-1,3.38-1.51,5.06a2.64,2.64,0,1,0,5.06,1.52L51,130.12a2.64,2.64,0,0,0-5.06-1.5Z"/><path class="cls-1" d="M85.41,75.33a2.66,2.66,0,0,0-3.28,1.78c-.51,1.69-1,3.39-1.52,5.08a2.64,2.64,0,0,0,5.06,1.5l1.52-5.06A2.65,2.65,0,0,0,85.41,75.33Z"/><path class="cls-1" d="M64.63,75.33a2.67,2.67,0,0,0-3.3,1.78c-.5,1.69-1,3.39-1.5,5.08a2.64,2.64,0,1,0,5.06,1.5l1.52-5.06A2.67,2.67,0,0,0,64.63,75.33Z"/><path class="cls-1" d="M66.76,128.62c-.5,1.69-1,3.38-1.51,5.06a2.65,2.65,0,1,0,5.08,1.52c.48-1.69,1-3.39,1.49-5.08a2.64,2.64,0,0,0-5.06-1.5Z"/><path class="cls-1" d="M56.22,94.28q-.77,2.55-1.52,5.07a2.65,2.65,0,0,0,5.08,1.52c.5-1.7,1-3.39,1.49-5.08a2.64,2.64,0,1,0-5.05-1.51Z"/><path class="cls-1" d="M77,94.28c-.51,1.7-1,3.39-1.5,5.07a2.64,2.64,0,0,0,5.06,1.52c.5-1.7,1-3.39,1.51-5.08A2.65,2.65,0,0,0,77,94.28Z"/><path class="cls-1" d="M71.88,111.44c-.51,1.71-1,3.39-1.52,5.08A2.65,2.65,0,1,0,75.44,118c.51-1.71,1-3.39,1.52-5.08a2.65,2.65,0,0,0-5.08-1.52Z"/><path class="cls-1" d="M36.37,94.28q-.75,2.55-1.52,5.07a2.64,2.64,0,0,0,5.06,1.52c.51-1.7,1-3.39,1.52-5.08a2.64,2.64,0,1,0-5.06-1.51Z"/><path class="cls-1" d="M44.77,75.33a2.66,2.66,0,0,0-3.28,1.78L40,82.19a2.65,2.65,0,0,0,5.08,1.5l1.5-5.06A2.65,2.65,0,0,0,44.77,75.33Z"/><path class="cls-1" d="M26.12,128.62q-.75,2.53-1.52,5.06a2.65,2.65,0,1,0,5.08,1.52c.51-1.69,1-3.39,1.52-5.08a2.65,2.65,0,0,0-5.08-1.5Z"/><path class="cls-1" d="M31.24,111.44c-.51,1.71-1,3.39-1.5,5.08A2.64,2.64,0,1,0,34.8,118c.5-1.71,1-3.39,1.52-5.08a2.65,2.65,0,0,0-5.08-1.52Z"/></g></g></svg>