<svg xmlns="http://www.w3.org/2000/svg" viewBox="0 0 146.37 90.08"><defs><style>.cls-1{fill:#414042;}</style></defs><g id="Calque_2" data-name="Calque 2"><g id="Layer_1" data-name="Layer 1"><path class="cls-1" d="M139.69,42.93a28.2,28.2,0,0,0-6.91-6,28.85,28.85,0,0,0-6.58-3,37.56,37.56,0,0,0-7.55-19.11A37.65,37.65,0,0,0,98.9,1.43,37.1,37.1,0,0,0,86.93,0,37.76,37.76,0,0,0,58.52,15a25.69,25.69,0,0,0-3.22-.45,28.54,28.54,0,0,0-5.06.06,27.9,27.9,0,0,0-5.72,1.16,28.58,28.58,0,0,0-14,9.93A27.13,27.13,0,0,0,27.83,30a28.38,28.38,0,0,0-1.28,2.88,29.23,29.23,0,0,0-7.92,1.78A28.87,28.87,0,0,0,.17,58.49c-.06.5-.1,1-.13,1.57s0,1,0,1.63a32.93,32.93,0,0,0,1.42,9.5,31.24,31.24,0,0,0,4.09,8.55,24.84,24.84,0,0,0,7,6.87,20.54,20.54,0,0,0,8.79,3.11c.33,0,.69.08,1.06.1s.68,0,1.11,0l96.77.2h0l.49,0,.06,0a22.18,22.18,0,0,0,10.1-2.44,26.22,26.22,0,0,0,8.41-6.91,31.4,31.4,0,0,0,5.06-8.86,30.86,30.86,0,0,0,2-9.92v-.41l0-.19V61.3a28.74,28.74,0,0,0-6.68-18.37Zm1.39,18.5v.41A25.31,25.31,0,0,1,139.43,70a26.32,26.32,0,0,1-4.2,7.38,20.8,20.8,0,0,1-6.69,5.51A16.8,16.8,0,0,1,121,84.78h-.65l-96.86-.21-.82,0-.79-.07a15.2,15.2,0,0,1-6.52-2.33,19.61,19.61,0,0,1-5.49-5.41,25.6,25.6,0,0,1-3.38-7.09,27.51,27.51,0,0,1-1.19-8q0-.61,0-1.35c0-.43.06-.86.12-1.29A23.18,23.18,0,0,1,8,50.64a23.57,23.57,0,0,1,5.47-6.88,24.06,24.06,0,0,1,7.05-4.2,23.32,23.32,0,0,1,8-1.52c1.89,0,1.93,0,2.49-1.87a23,23,0,0,1,1.52-3.82,24.74,24.74,0,0,1,2.17-3.49,24,24,0,0,1,3.23-3.45,21.45,21.45,0,0,1,3.86-2.73,22.86,22.86,0,0,1,9-2.83,23.82,23.82,0,0,1,4.14,0A23.3,23.3,0,0,1,59,20.5c1.85.51,1.8.49,2.85-1.06a32.94,32.94,0,0,1,6.65-7.16,32.49,32.49,0,0,1,29-5.77,31.87,31.87,0,0,1,9.42,4.38,32.51,32.51,0,0,1,14.19,25.22c.13,2.36.11,2,2,2.46a23.31,23.31,0,0,1,18,22.73Z"/></g></g></svg>