<svg xmlns="http://www.w3.org/2000/svg" viewBox="0 0 146.36 144.9"><defs><style>.cls-1{fill:#414042;}</style></defs><g id="Calque_2" data-name="Calque 2"><g id="Layer_1" data-name="Layer 1"><path class="cls-1" d="M10,39.77a28.52,28.52,0,0,0-6.69,8.41A28.83,28.83,0,0,0,.17,58.49c-.06.5-.1,1-.13,1.57s0,1,0,1.63a32.93,32.93,0,0,0,1.42,9.5,31.24,31.24,0,0,0,4.09,8.55,24.84,24.84,0,0,0,7,6.87,19.51,19.51,0,0,0,12.16,3.24h1.48a2.64,2.64,0,0,0,0-5.28H24.83a15.91,15.91,0,0,1-9.5-2.42,19.61,19.61,0,0,1-5.49-5.41,25.6,25.6,0,0,1-3.38-7.09,27.51,27.51,0,0,1-1.19-8q0-.61,0-1.35c0-.43.06-.86.12-1.29A23.18,23.18,0,0,1,8,50.64a23.57,23.57,0,0,1,5.47-6.88,24.06,24.06,0,0,1,7.05-4.2,23.32,23.32,0,0,1,8-1.52c1.89,0,1.93,0,2.49-1.87a23,23,0,0,1,1.52-3.82,24.74,24.74,0,0,1,2.17-3.49,24,24,0,0,1,3.23-3.45,21.45,21.45,0,0,1,3.86-2.73,22.72,22.72,0,0,1,9-2.83,23.82,23.82,0,0,1,4.14,0A23.3,23.3,0,0,1,59,20.5c1.85.51,1.8.49,2.85-1.06a32.94,32.94,0,0,1,6.65-7.16,32.49,32.49,0,0,1,29-5.77,31.76,31.76,0,0,1,9.42,4.38,32.51,32.51,0,0,1,14.19,25.22c.13,2.36.11,2,2,2.46a23.31,23.31,0,0,1,18,22.73v.54A25.31,25.31,0,0,1,139.43,70a26.54,26.54,0,0,1-4.19,7.38,21,21,0,0,1-6.69,5.51A16.88,16.88,0,0,1,121,84.78h-4.62a.9.9,0,0,0-.23,0h-4.57a2.64,2.64,0,0,0,0,5.28h8.71c.49,0,.88,0,1.37,0a22.25,22.25,0,0,0,9.28-2.42,26.22,26.22,0,0,0,8.41-6.91,31.4,31.4,0,0,0,5.06-8.86,30.86,30.86,0,0,0,2-9.92v-.41a1.15,1.15,0,0,1,0-.19V61.3a28.65,28.65,0,0,0-13.58-24.36,28.65,28.65,0,0,0-6.58-3,37.56,37.56,0,0,0-7.55-19.11A37.65,37.65,0,0,0,98.9,1.43,37.1,37.1,0,0,0,86.93,0,37.76,37.76,0,0,0,58.52,15a25.69,25.69,0,0,0-3.22-.45,28.54,28.54,0,0,0-5.06.06,27.9,27.9,0,0,0-5.72,1.16,28.58,28.58,0,0,0-14,9.93A26.42,26.42,0,0,0,27.83,30a28.38,28.38,0,0,0-1.28,2.88,29.23,29.23,0,0,0-7.92,1.78A28.64,28.64,0,0,0,10,39.77Z"/><path class="cls-1" d="M95.7,126.21c.58-1.65,1.16-3.32,1.74-5a2.65,2.65,0,1,0-5-1.74c-.58,1.67-1.17,3.32-1.75,5a2.65,2.65,0,1,0,5,1.75Z"/><path class="cls-1" d="M86.4,144.76a2.68,2.68,0,0,0,3.38-1.63l1.74-5a2.64,2.64,0,0,0-5-1.74l-1.74,5A2.66,2.66,0,0,0,86.4,144.76Z"/><path class="cls-1" d="M55.11,116a2.67,2.67,0,0,0-3.37,1.63q-.87,2.5-1.75,5a2.64,2.64,0,1,0,5,1.74c.58-1.64,1.16-3.31,1.74-5A2.64,2.64,0,0,0,55.11,116Z"/><path class="cls-1" d="M101.6,109.3l1.74-5a2.64,2.64,0,1,0-5-1.76c-.58,1.67-1.16,3.33-1.75,5a2.64,2.64,0,1,0,5,1.74Z"/><path class="cls-1" d="M29.36,132A2.65,2.65,0,0,0,26,133.57l-1.74,5a2.64,2.64,0,0,0,5,1.75c.6-1.67,1.18-3.34,1.76-5A2.65,2.65,0,0,0,29.36,132Z"/><path class="cls-1" d="M75.87,116.93a2.65,2.65,0,0,0-3.37,1.61l-1.74,5a2.64,2.64,0,1,0,5,1.74c.58-1.67,1.18-3.34,1.76-5A2.66,2.66,0,0,0,75.87,116.93Z"/><path class="cls-1" d="M60.9,107.41q.87-2.5,1.74-5a2.64,2.64,0,1,0-5-1.76c-.6,1.66-1.18,3.33-1.76,5a2.65,2.65,0,0,0,5,1.74Z"/><path class="cls-1" d="M81.66,108.39l1.74-5a2.64,2.64,0,1,0-5-1.74c-.58,1.67-1.16,3.34-1.76,5a2.65,2.65,0,0,0,5,1.76Z"/><path class="cls-1" d="M41.07,106.49q.88-2.49,1.75-5a2.65,2.65,0,0,0-5-1.74l-1.74,5a2.62,2.62,0,0,0,1.63,3.36A2.66,2.66,0,0,0,41.07,106.49Z"/><path class="cls-1" d="M35.15,123.4c.58-1.67,1.16-3.32,1.75-5A2.66,2.66,0,0,0,35.28,115a2.63,2.63,0,0,0-3.37,1.63l-1.74,5a2.64,2.64,0,1,0,5,1.75Z"/><path class="cls-1" d="M87.1,89.8A2.68,2.68,0,0,0,89,86.56l-1.56-5.79,6.79,3.91a2.65,2.65,0,0,0,2.64-4.59l-6.76-3.9,5.77-1.55a2.65,2.65,0,0,0-1.37-5.12L83.59,72.45l-2.7-1.57V65.54L83.59,64,94.48,66.9a2.64,2.64,0,1,0,1.37-5.1l-5.77-1.55,6.76-3.92a2.64,2.64,0,0,0-2.64-4.57l-6.79,3.9L89,49.88a2.64,2.64,0,1,0-5.1-1.36L81,59.4,78.25,61,73.62,58.3V55.17l8-8a2.64,2.64,0,0,0-3.73-3.75l-4.24,4.23V39.88a2.65,2.65,0,0,0-5.3,0v7.81l-4.24-4.23a2.63,2.63,0,0,0-3.72,0,2.66,2.66,0,0,0,0,3.75l8,8V58.3L63.7,61,61,59.4l-2.9-10.88A2.65,2.65,0,0,0,53,49.88l1.56,5.78-6.77-3.9a2.64,2.64,0,0,0-2.66,4.57l6.79,3.92L46.1,61.8a2.64,2.64,0,1,0,1.36,5.1L58.35,64l2.7,1.55v5.36l-2.7,1.56L47.46,69.52a2.65,2.65,0,1,0-1.36,5.12l5.79,1.55-6.79,3.9a2.65,2.65,0,0,0,2.66,4.59l6.77-3.91L53,86.56a2.65,2.65,0,0,0,5.12,1.36L61,77l2.72-1.56,4.61,2.66v3.13l-8,8A2.63,2.63,0,0,0,64.08,93l4.24-4.24v7.81a2.65,2.65,0,1,0,5.3,0V88.73L77.86,93a2.64,2.64,0,0,0,3.73-3.73l-8-8V78.12l4.62-2.66L81,77l2.92,10.9A2.65,2.65,0,0,0,87.1,89.8ZM66.35,65.53,71,62.87l4.63,2.66v5.36L71,73.57l-4.63-2.68Z"/></g></g></svg>