<svg xmlns="http://www.w3.org/2000/svg" viewBox="0 0 175.99 127.1"><defs><style>.cls-1{fill:#414042;}</style></defs><g id="Calque_2" data-name="Calque 2"><g id="Layer_1" data-name="Layer 1"><path class="cls-1" d="M26.29,80a39.2,39.2,0,0,0,5.49,7.73,29.33,29.33,0,0,0-2,7.83c-.06.5-.09,1-.13,1.57s0,1,0,1.63A32.64,32.64,0,0,0,31,108.21a31.22,31.22,0,0,0,4.09,8.57,24.5,24.5,0,0,0,7,6.85,20.31,20.31,0,0,0,8.79,3.13l1.07.1,1.1,0,96.77.2h0l.49,0h.06a22.17,22.17,0,0,0,10.1-2.42,26.12,26.12,0,0,0,8.41-6.91,31.43,31.43,0,0,0,5.06-8.86A30.86,30.86,0,0,0,176,99v-.43l0-.19v0a28.26,28.26,0,0,0-1.73-9.77A28.41,28.41,0,0,0,162.4,74a27.05,27.05,0,0,0-6.58-3,37,37,0,0,0-2.1-9.18,37.63,37.63,0,0,0-5.45-9.93,38.14,38.14,0,0,0-8.79-8.3,37.89,37.89,0,0,0-22.93-6.49,38,38,0,0,0-11.83,2.48,37.5,37.5,0,0,0-8,4.26c-.27-.56-.55-1.11-.84-1.66A39.6,39.6,0,0,0,26.29,80Zm80.33-35.49a31.83,31.83,0,0,1,10.17-2.13,32.27,32.27,0,0,1,10.31,1.2,32.38,32.38,0,0,1,17,11.52,32.47,32.47,0,0,1,4.69,8.55,32.15,32.15,0,0,1,2,9.53c.13,2.36.11,2,2,2.46a22.84,22.84,0,0,1,6.9,2.85A23.24,23.24,0,0,1,170.7,98.34v.52a25.32,25.32,0,0,1-1.65,8.21,26.29,26.29,0,0,1-4.19,7.38,21,21,0,0,1-6.69,5.51,16.87,16.87,0,0,1-7.57,1.86h-.66l-96.86-.21c-.24,0-.51,0-.82,0a6.84,6.84,0,0,1-.79,0A15.2,15.2,0,0,1,45,119.19a19.61,19.61,0,0,1-5.49-5.41,25.3,25.3,0,0,1-3.37-7.09,27.18,27.18,0,0,1-1.2-8q0-.62,0-1.35c0-.43.06-.86.12-1.31a23.19,23.19,0,0,1,2.56-8.39,23.92,23.92,0,0,1,5.47-6.9,24.45,24.45,0,0,1,7-4.18,23.56,23.56,0,0,1,8-1.52c1.89,0,1.93,0,2.49-1.87a23.39,23.39,0,0,1,1.52-3.82,24.74,24.74,0,0,1,2.17-3.49,24.08,24.08,0,0,1,3.23-3.46,21.91,21.91,0,0,1,3.86-2.72,22.86,22.86,0,0,1,9-2.83,23.93,23.93,0,0,1,4.15,0,23.34,23.34,0,0,1,4.08.69c1.86.51,1.8.47,2.85-1.06a32.05,32.05,0,0,1,6.65-7.16A32.94,32.94,0,0,1,106.62,44.48ZM28.16,51.36a34.34,34.34,0,0,1,63.09-6.67c.45.82.87,1.67,1.25,2.53A37.55,37.55,0,0,0,88.14,52a25.38,25.38,0,0,0-3.22-.43,27.62,27.62,0,0,0-5.06,0,27.9,27.9,0,0,0-5.72,1.16,28.94,28.94,0,0,0-5.32,2.31,27.55,27.55,0,0,0-4.74,3.37,28.91,28.91,0,0,0-7.91,11.41,28.91,28.91,0,0,0-21.73,12.8,35.24,35.24,0,0,1-3.53-5.23,34.55,34.55,0,0,1-2.75-26.1Z"/><path class="cls-1" d="M53.51,14.58A2.65,2.65,0,0,0,58.78,14L57.54,2.36a2.64,2.64,0,0,0-5.26.56Z"/><path class="cls-1" d="M31.29,24.6a2.64,2.64,0,0,0,4.27-3.11L28.66,12a2.65,2.65,0,0,0-4.29,3.11Z"/><path class="cls-1" d="M6.31,39.61l10.74,4.78a2.64,2.64,0,0,0,2.13-4.83L8.47,34.8a2.64,2.64,0,1,0-2.16,4.81Z"/><path class="cls-1" d="M17,65.73a2.64,2.64,0,0,0-2.9-2.34L2.38,64.63a2.63,2.63,0,1,0,.54,5.24l11.67-1.23A2.66,2.66,0,0,0,17,65.73Z"/><path class="cls-1" d="M25.2,87.19a2.64,2.64,0,0,0-3.69-.58L12,93.5a2.65,2.65,0,0,0,3.11,4.28l9.5-6.9A2.68,2.68,0,0,0,25.2,87.19Z"/><path class="cls-1" d="M100.68,35.55l9.48-6.9a2.64,2.64,0,1,0-3.11-4.27l-9.48,6.89a2.65,2.65,0,0,0,3.11,4.28Z"/><path class="cls-1" d="M79.11,20.52a2.66,2.66,0,0,0,3.5-1.35L87.37,8.45a2.64,2.64,0,1,0-4.83-2.14L77.78,17A2.64,2.64,0,0,0,79.11,20.52Z"/></g></g></svg>