<svg xmlns="http://www.w3.org/2000/svg" viewBox="0 0 146.37 138.59"><defs><style>.cls-1{fill:#414042;}</style></defs><g id="Calque_2" data-name="Calque 2"><g id="Layer_1" data-name="Layer 1"><path class="cls-1" d="M139.69,42.93a28.69,28.69,0,0,0-13.49-9A37.74,37.74,0,0,0,98.9,1.43,37.1,37.1,0,0,0,86.93,0,37.76,37.76,0,0,0,58.52,15a25.44,25.44,0,0,0-3.22-.45,28.52,28.52,0,0,0-5.06.06,27.9,27.9,0,0,0-5.72,1.16,28.36,28.36,0,0,0-5.32,2.31,28.3,28.3,0,0,0-8.71,7.62A26.42,26.42,0,0,0,27.83,30a28.38,28.38,0,0,0-1.28,2.88A28.79,28.79,0,0,0,.17,58.49c-.06.5-.09,1-.13,1.57s0,1,0,1.63a32.93,32.93,0,0,0,1.42,9.5,30.67,30.67,0,0,0,4.09,8.55,24.84,24.84,0,0,0,7,6.87,20.54,20.54,0,0,0,8.79,3.11c.33,0,.69.08,1.07.1s.67,0,1.1,0q48.38.1,96.77.2h0a3.85,3.85,0,0,0,.49,0,.07.07,0,0,1,.06,0,22.18,22.18,0,0,0,10.1-2.44,26.33,26.33,0,0,0,8.41-6.91,31.6,31.6,0,0,0,7-18.78v-.6s0,0,0-.05a28.74,28.74,0,0,0-6.68-18.37Zm1.39,18.5v.41A25.31,25.31,0,0,1,139.43,70a26.08,26.08,0,0,1-4.2,7.38,20.87,20.87,0,0,1-6.68,5.51A16.88,16.88,0,0,1,121,84.78h-.65l-96.86-.21-.82,0-.79-.07a15.2,15.2,0,0,1-6.52-2.33,19.61,19.61,0,0,1-5.49-5.41,25.3,25.3,0,0,1-3.37-7.09,27.18,27.18,0,0,1-1.2-8q0-.61,0-1.35t.12-1.29A23.18,23.18,0,0,1,8,50.64a23.57,23.57,0,0,1,5.47-6.88,24.09,24.09,0,0,1,7-4.2,23.52,23.52,0,0,1,8-1.52c1.89,0,1.93,0,2.49-1.87a21.42,21.42,0,0,1,1.52-3.82,24.74,24.74,0,0,1,2.17-3.49,24,24,0,0,1,3.23-3.45,21.45,21.45,0,0,1,3.86-2.73,22.51,22.51,0,0,1,4.33-1.88,23,23,0,0,1,4.62-.95,23.91,23.91,0,0,1,4.15,0A23.66,23.66,0,0,1,59,20.5c1.85.51,1.78.49,2.85-1.06a32.48,32.48,0,0,1,57.32,7.13,33,33,0,0,1,2,9.54c.11,2.36.11,2,2,2.46a23.24,23.24,0,0,1,12.54,7.74,23.84,23.84,0,0,1,4,7,23.39,23.39,0,0,1,1.39,8Z"/><path class="cls-1" d="M22,130.12l-1.52,5.06a2.64,2.64,0,1,0,5.06,1.52l1.52-5.08a2.64,2.64,0,0,0-5.06-1.5Z"/><path class="cls-1" d="M52,113c-.51,1.69-1,3.37-1.52,5.06a2.64,2.64,0,1,0,5.06,1.52c.5-1.69,1-3.4,1.52-5.08A2.64,2.64,0,0,0,52,113Z"/><path class="cls-1" d="M57.41,104.15a2.68,2.68,0,0,0,3.3-1.78c.51-1.69,1-3.39,1.5-5.08a2.64,2.64,0,0,0-5.06-1.5q-.75,2.53-1.52,5.06A2.69,2.69,0,0,0,57.41,104.15Z"/><path class="cls-1" d="M76.94,113c-.49,1.69-1,3.37-1.5,5.06a2.64,2.64,0,1,0,5.06,1.52c.51-1.69,1-3.4,1.52-5.08a2.65,2.65,0,0,0-5.08-1.5Z"/><path class="cls-1" d="M82.34,104.15a2.66,2.66,0,0,0,3.28-1.78l1.51-5.08a2.64,2.64,0,0,0-5.06-1.5c-.5,1.69-1,3.38-1.51,5.06A2.67,2.67,0,0,0,82.34,104.15Z"/><path class="cls-1" d="M27.11,113c-.5,1.69-1,3.37-1.51,5.06a2.65,2.65,0,1,0,5.07,1.52c.49-1.69,1-3.4,1.5-5.08a2.64,2.64,0,0,0-5.06-1.5Z"/><path class="cls-1" d="M32.49,104.15a2.66,2.66,0,0,0,3.3-1.78c.51-1.69,1-3.39,1.52-5.08A2.67,2.67,0,0,0,35.53,94a2.64,2.64,0,0,0-3.3,1.78c-.51,1.69-1,3.38-1.52,5.06A2.69,2.69,0,0,0,32.49,104.15Z"/><path class="cls-1" d="M96.75,130.12l-1.52,5.06a2.65,2.65,0,1,0,5.08,1.52l1.5-5.08a2.64,2.64,0,1,0-5.06-1.5Z"/><path class="cls-1" d="M101.86,113c-.5,1.69-1,3.37-1.5,5.06a2.64,2.64,0,1,0,5.06,1.52c.51-1.69,1-3.4,1.52-5.08a2.65,2.65,0,0,0-5.08-1.5Z"/><path class="cls-1" d="M107.26,104.15a2.65,2.65,0,0,0,3.28-1.78c.5-1.69,1-3.39,1.52-5.08a2.64,2.64,0,0,0-5.06-1.5q-.77,2.53-1.52,5.06A2.66,2.66,0,0,0,107.26,104.15Z"/></g></g></svg>