<svg xmlns="http://www.w3.org/2000/svg" viewBox="0 0 151.72 115.36"><defs><style>.cls-1{fill:#414042;}</style></defs><g id="Calque_2" data-name="Calque 2"><g id="Layer_1" data-name="Layer 1"><path class="cls-1" d="M145.05,42.93a28.69,28.69,0,0,0-13.49-9A37.56,37.56,0,0,0,124,14.83a37.65,37.65,0,0,0-19.75-13.4A37.1,37.1,0,0,0,92.29,0,37.86,37.86,0,0,0,80.46,2.52a38.25,38.25,0,0,0-9.89,5.63A37.7,37.7,0,0,0,63.88,15a25.69,25.69,0,0,0-3.22-.45,28.54,28.54,0,0,0-5.06.06,27.9,27.9,0,0,0-5.72,1.16,28.36,28.36,0,0,0-5.32,2.31,29.71,29.71,0,0,0-4.76,3.37,29.36,29.36,0,0,0-3.95,4.25A26.42,26.42,0,0,0,33.19,30a28.38,28.38,0,0,0-1.28,2.88A29,29,0,0,0,24,34.63,29.09,29.09,0,0,0,8.66,48.18,29.21,29.21,0,0,0,5.53,58.49c-.06.5-.1,1-.13,1.57s0,1,0,1.63A32.27,32.27,0,0,0,8.81,76.24c-.44.32-.87.67-1.28,1A21.94,21.94,0,0,0,5.1,79.75a20.58,20.58,0,0,0-2.16,3.1,20.9,20.9,0,0,0-1.59,3.39,22.84,22.84,0,0,0-1,3.63C.32,90.25.26,90.6.22,91H0l.06,2.57v.58a22.78,22.78,0,0,0,.42,3.78,24.79,24.79,0,0,0,1.08,3.73,26.27,26.27,0,0,0,1.65,3.56,23.11,23.11,0,0,0,2.19,3.19,21.58,21.58,0,0,0,2.93,3,19.29,19.29,0,0,0,3.37,2.23,16.86,16.86,0,0,0,3.56,1.31,15.51,15.51,0,0,0,3.77.47h.54l78.8-.17h.39l.41,0,.4,0,.39,0a15.22,15.22,0,0,0,3.33-.76,16.27,16.27,0,0,0,3.1-1.54,17.78,17.78,0,0,0,2.81-2.25,20.17,20.17,0,0,0,2.4-2.87,21.51,21.51,0,0,0,1.79-3.11,25.15,25.15,0,0,0,1.32-3.39,26.59,26.59,0,0,0,.82-3.6A25.53,25.53,0,0,0,115.8,94a5.44,5.44,0,0,0,0-.6c0-.28,0-.51,0-.64,0-.34,0-.54,0-.62s0-.32-.06-.6c0-.5-.14-1-.23-1.47h10.18l.49,0,0,0a22.12,22.12,0,0,0,10.1-2.44,26.26,26.26,0,0,0,8.42-6.91,31.6,31.6,0,0,0,7-18.78V61.3a28.65,28.65,0,0,0-6.67-18.37ZM110.31,96.82a18.55,18.55,0,0,1-1.68,5.5h0a19.26,19.26,0,0,1-1.36,2.38,15.79,15.79,0,0,1-1.76,2.09,11.75,11.75,0,0,1-2,1.58,10.3,10.3,0,0,1-2,1,9.69,9.69,0,0,1-2.13.49s-.08,0-.27,0h-.22l-.32,0h-.22l-78.8.17h-.5a10.18,10.18,0,0,1-2.55-.32,11.51,11.51,0,0,1-2.44-.9,13.68,13.68,0,0,1-2.4-1.59,15.79,15.79,0,0,1-2.19-2.21,19.55,19.55,0,0,1-1.69-2.47A21,21,0,0,1,6.5,99.8a19,19,0,0,1-.82-2.92,17.37,17.37,0,0,1-.34-2.64v-.62a17.77,17.77,0,0,1,.24-2.85A16.82,16.82,0,0,1,6.31,88a17.78,17.78,0,0,1,1.2-2.57,16.4,16.4,0,0,1,1.63-2.34A19.27,19.27,0,0,1,11,81.25a16.58,16.58,0,0,1,4.42-2.73,16.31,16.31,0,0,1,2.53-.81l.47-.11c3-.62,3-.62,3.19-4.33A25.27,25.27,0,0,1,22,69.75a22.86,22.86,0,0,1,1-3.45A22.29,22.29,0,0,1,24.51,63a25.29,25.29,0,0,1,1.95-3A23.48,23.48,0,0,1,29,57.19a24.17,24.17,0,0,1,3-2.39,21.39,21.39,0,0,1,3.29-1.86,22.13,22.13,0,0,1,3.6-1.33,23.43,23.43,0,0,1,7.57-.88,21.83,21.83,0,0,1,3.77.47,25.16,25.16,0,0,1,3.67,1.08,23.69,23.69,0,0,1,6.24,3.55,23.66,23.66,0,0,1,2.62,2.43A23.08,23.08,0,0,1,65,61.07l.1.13c1.8,2.66,1.81,2.68,5.07,1.8a12.7,12.7,0,0,1,1.39-.3A13.83,13.83,0,0,1,73,62.51c.57,0,1,0,1.48,0a14,14,0,0,1,1.43.07,14.2,14.2,0,0,1,1.61.25c.51.11,1,.26,1.63.43a14.39,14.39,0,0,1,1.56.58,14.15,14.15,0,0,1,1.46.73c.5.28,1,.58,1.42.88a15.1,15.1,0,0,1,2.46,2.17,12.21,12.21,0,0,1,1.06,1.28A12.46,12.46,0,0,1,87.94,70a11.73,11.73,0,0,1,.69,1.24q.34.67.6,1.29c.15.41.3.86.47,1.39,1,3.41,1.09,3.41,4.5,3.41h0a15.69,15.69,0,0,1,2.83.28,17.33,17.33,0,0,1,2.78.78,14.66,14.66,0,0,1,2.58,1.26l0,0a17.57,17.57,0,0,1,2.32,1.69,17.09,17.09,0,0,1,2.16,2.25,16.62,16.62,0,0,1,1.69,2.58A16.79,16.79,0,0,1,109.81,89a15.9,15.9,0,0,1,.61,3c0,.07,0,.22,0,.46v0l0,.43c0,.27,0,.42,0,.51a4.2,4.2,0,0,1,0,.47A19.09,19.09,0,0,1,110.31,96.82Zm36.13-35.39v.41A25.58,25.58,0,0,1,144.79,70a26.32,26.32,0,0,1-4.2,7.38,20.8,20.8,0,0,1-6.69,5.51,16.8,16.8,0,0,1-7.57,1.86h-.65l-11.91,0c-.16-.35-.31-.7-.48-1a21.3,21.3,0,0,0-2.23-3.41,22,22,0,0,0-2.83-3,22.46,22.46,0,0,0-3.09-2.22h0a24.08,24.08,0,0,0-3.43-1.65,23.17,23.17,0,0,0-3.65-1,22.25,22.25,0,0,0-3.41-.36c-.15-.47-.32-1-.53-1.46s-.5-1.2-.77-1.74-.61-1.13-.93-1.65-.7-1.07-1.09-1.58A17.07,17.07,0,0,0,89.91,64a17.3,17.3,0,0,0-1.56-1.52,20.61,20.61,0,0,0-1.72-1.37c-.6-.41-1.24-.8-1.88-1.18a18.9,18.9,0,0,0-2-1c-.74-.31-1.43-.58-2.05-.78a20.66,20.66,0,0,0-2.13-.55h0a19.76,19.76,0,0,0-2.16-.33c-.62-.06-1.25-.1-1.91-.1a15,15,0,0,0-1.93.06c-.62.06-1.25.13-1.89.24a15.56,15.56,0,0,0-1.54.32,30.22,30.22,0,0,0-2.55-3.15,29.12,29.12,0,0,0-3.22-3,31.64,31.64,0,0,0-3.65-2.47,31.36,31.36,0,0,0-4-1.87A29.43,29.43,0,0,0,51.31,46a27.52,27.52,0,0,0-4.63-.58,28.85,28.85,0,0,0-4.65.15,28,28,0,0,0-4.57.9,28.33,28.33,0,0,0-4.39,1.63,29.44,29.44,0,0,0-4,2.31,28.92,28.92,0,0,0-3.64,2.92,30.94,30.94,0,0,0-3.13,3.47,28.91,28.91,0,0,0-2.38,3.65,30.42,30.42,0,0,0-1.82,4,30.19,30.19,0,0,0-1.72,8.17,21.5,21.5,0,0,0-2.93,1,26.12,26.12,0,0,1-1.59-4,27.52,27.52,0,0,1-1.2-8c0-.41,0-.86,0-1.35s.06-.86.11-1.29a23.57,23.57,0,0,1,8-15.29,24,24,0,0,1,7-4.2,23.52,23.52,0,0,1,8-1.52c1.89,0,1.93,0,2.49-1.87a20.7,20.7,0,0,1,1.52-3.82,24.74,24.74,0,0,1,2.17-3.49,23.93,23.93,0,0,1,3.22-3.45,21.88,21.88,0,0,1,3.87-2.73,22.42,22.42,0,0,1,4.32-1.88,23.24,23.24,0,0,1,4.63-.95,23.47,23.47,0,0,1,8.23.65c1.85.51,1.78.49,2.85-1.06a32.46,32.46,0,0,1,6.65-7.16,32,32,0,0,1,8.52-4.84,32.39,32.39,0,0,1,20.49-.93,32.38,32.38,0,0,1,17,11.52,32.57,32.57,0,0,1,4.69,8.54,33,33,0,0,1,2,9.54c.11,2.36.11,2,2,2.46a23.31,23.31,0,0,1,18,22.73Z"/></g></g></svg>