<svg xmlns="http://www.w3.org/2000/svg" viewBox="0 0 146.37 128.79"><defs><style>.cls-1{fill:#414042;}</style></defs><g id="Calque_2" data-name="Calque 2"><g id="Layer_1" data-name="Layer 1"><path class="cls-1" d="M30.49,25.69A27.13,27.13,0,0,0,27.83,30a28.38,28.38,0,0,0-1.28,2.88,29.06,29.06,0,0,0-7.92,1.78A28.87,28.87,0,0,0,.17,58.49c-.06.5-.09,1-.13,1.57s0,1,0,1.63a32.93,32.93,0,0,0,1.42,9.5,31.24,31.24,0,0,0,4.09,8.55,24.84,24.84,0,0,0,7,6.87,20.54,20.54,0,0,0,8.79,3.11c.33,0,.69.08,1.06.1s.68,0,1.11,0h7.46a2.64,2.64,0,0,0,0-5.28H23.46l-.82,0-.79-.07a15.2,15.2,0,0,1-6.52-2.33,19.61,19.61,0,0,1-5.49-5.41,25.6,25.6,0,0,1-3.38-7.09,27.51,27.51,0,0,1-1.19-8q0-.61,0-1.35c0-.43.06-.86.12-1.29A23.18,23.18,0,0,1,8,50.64a23.57,23.57,0,0,1,5.47-6.88,24.09,24.09,0,0,1,7-4.2,23.52,23.52,0,0,1,8-1.52c1.89,0,1.93,0,2.49-1.87a23,23,0,0,1,1.52-3.82,24.74,24.74,0,0,1,2.17-3.49,24,24,0,0,1,3.23-3.45,21.45,21.45,0,0,1,3.86-2.73,22.51,22.51,0,0,1,4.33-1.88,23,23,0,0,1,4.62-.95,23.82,23.82,0,0,1,4.14,0A23.3,23.3,0,0,1,59,20.5c1.85.51,1.78.49,2.85-1.06a32.94,32.94,0,0,1,6.65-7.16,32.5,32.5,0,0,1,46,5.75,32.57,32.57,0,0,1,4.69,8.54,33,33,0,0,1,2,9.54c.11,2.36.11,2,2,2.46a23.31,23.31,0,0,1,18,22.73v.54A25.31,25.31,0,0,1,139.43,70a26.32,26.32,0,0,1-4.2,7.38,20.87,20.87,0,0,1-6.68,5.51A16.87,16.87,0,0,1,121,84.78h-4.63a.9.9,0,0,0-.23,0h-4.57a2.64,2.64,0,0,0,0,5.28h8.71c.49,0,.86,0,1.37,0a22.25,22.25,0,0,0,9.28-2.42,26.22,26.22,0,0,0,8.41-6.91,31.6,31.6,0,0,0,7-18.78v-.41a.58.58,0,0,1,0-.19V61.3a28.68,28.68,0,0,0-13.59-24.36,28.65,28.65,0,0,0-6.58-3,37.56,37.56,0,0,0-7.55-19.11A37.65,37.65,0,0,0,98.9,1.43,37.1,37.1,0,0,0,86.93,0,37.86,37.86,0,0,0,75.1,2.52a38.25,38.25,0,0,0-9.89,5.63A37.7,37.7,0,0,0,58.52,15a25.69,25.69,0,0,0-3.22-.45,28.54,28.54,0,0,0-5.06.06,27.9,27.9,0,0,0-5.72,1.16,28.58,28.58,0,0,0-14,9.93Z"/><path class="cls-1" d="M102.5,74.19a2.62,2.62,0,0,0-3.6-1l-6.78,3.91,1.55-5.79A2.64,2.64,0,1,0,88.58,70L85.65,80.86l-5.84,3.37-6.19-3.56V73.93l8-8a2.64,2.64,0,0,0-3.73-3.74l-4.24,4.23V58.62a2.64,2.64,0,0,0-5.28,0v7.81L64.08,62.2a2.64,2.64,0,1,0-3.72,3.74l8,8v6.74l-6.2,3.56-5.83-3.37L53.39,70a2.65,2.65,0,0,0-5.12,1.37l1.56,5.79-6.77-3.91a2.64,2.64,0,1,0-2.64,4.58l6.76,3.9-5.79,1.56a2.65,2.65,0,0,0-1.87,3.24,2.62,2.62,0,0,0,3.24,1.85l10.89-2.9,5.84,3.35V96l-5.84,3.38L42.76,96.41a2.65,2.65,0,0,0-1.37,5.12l5.79,1.55L40.42,107a2.65,2.65,0,0,0-1,3.62,2.68,2.68,0,0,0,3.62,1l6.77-3.91-1.56,5.79a2.65,2.65,0,1,0,5.12,1.36l2.92-10.9,5.83-3.38,6.2,3.58v6.75l-8,8a2.63,2.63,0,0,0,3.72,3.73l4.26-4.23v7.81a2.64,2.64,0,1,0,5.28,0v-7.81l4.24,4.23a2.64,2.64,0,0,0,3.73-3.73l-8-8v-6.75l6.19-3.58,5.84,3.38,2.93,10.9a2.63,2.63,0,0,0,3.22,1.88,2.67,2.67,0,0,0,1.87-3.24l-1.55-5.79,6.78,3.91a2.65,2.65,0,0,0,2.64-4.59l-6.76-3.9,5.77-1.55a2.65,2.65,0,0,0-1.37-5.12L88.3,99.34,82.47,96V88.8l5.83-3.35,10.88,2.9a2.61,2.61,0,0,0,3.24-1.85,2.64,2.64,0,0,0-1.87-3.24L94.78,81.7l6.76-3.9A2.65,2.65,0,0,0,102.5,74.19ZM77.16,96,71,99.56,64.78,96V88.8L71,85.23l6.18,3.57Z"/></g></g></svg>