<svg xmlns="http://www.w3.org/2000/svg" viewBox="0 0 146.37 133.21"><defs><style>.cls-1,.cls-2{fill:#414042;}.cls-2{font-size:97.65px;font-family:MyriadPro-Regular, Myriad Pro;}</style></defs><g id="Calque_2" data-name="Calque 2"><g id="Layer_1" data-name="Layer 1"><path class="cls-1" d="M55.3,14.54a28.52,28.52,0,0,0-5.06.06,27.9,27.9,0,0,0-5.72,1.16,28.36,28.36,0,0,0-5.32,2.31,29.71,29.71,0,0,0-4.76,3.37,29.36,29.36,0,0,0-3.95,4.25A26.42,26.42,0,0,0,27.83,30a28.38,28.38,0,0,0-1.28,2.88A29,29,0,0,0,3.3,48.18,29.21,29.21,0,0,0,.17,58.49c-.06.5-.1,1-.13,1.57s0,1,0,1.63a32.93,32.93,0,0,0,1.42,9.5,31.24,31.24,0,0,0,4.09,8.55,24.84,24.84,0,0,0,7,6.87,20.54,20.54,0,0,0,8.79,3.11c.33,0,.69.08,1.06.1s.68,0,1.11,0h28a2.64,2.64,0,0,0,0-5.28h-28l-.82,0-.79-.07a15.2,15.2,0,0,1-6.52-2.33,19.61,19.61,0,0,1-5.49-5.41,25.6,25.6,0,0,1-3.38-7.09,27.52,27.52,0,0,1-1.2-8c0-.41,0-.86,0-1.35s.06-.86.11-1.29a23.57,23.57,0,0,1,8-15.29,24,24,0,0,1,7-4.2,23.52,23.52,0,0,1,8-1.52c1.89,0,1.93,0,2.49-1.87a21.42,21.42,0,0,1,1.52-3.82,24.74,24.74,0,0,1,2.17-3.49,24,24,0,0,1,3.23-3.45,21.45,21.45,0,0,1,3.86-2.73,22.51,22.51,0,0,1,4.33-1.88,23,23,0,0,1,4.62-.95A23.47,23.47,0,0,1,59,20.5c1.85.51,1.78.49,2.85-1.06a32.48,32.48,0,0,1,57.32,7.13,33,33,0,0,1,2,9.54c.11,2.36.11,2,2,2.46a23.24,23.24,0,0,1,12.54,7.74,23.84,23.84,0,0,1,4,7,23.39,23.39,0,0,1,1.39,8v.54A25.31,25.31,0,0,1,139.43,70a26.08,26.08,0,0,1-4.2,7.38,20.8,20.8,0,0,1-6.69,5.51A16.8,16.8,0,0,1,121,84.78H101.49a1.14,1.14,0,0,0-.25,0H96.69a2.64,2.64,0,0,0,0,5.28h23.57c.49,0,.86,0,1.37,0a22.25,22.25,0,0,0,9.28-2.42,26.33,26.33,0,0,0,8.41-6.91,31.6,31.6,0,0,0,7-18.78v-.6s0,0,0-.05a28.68,28.68,0,0,0-13.59-24.36,28.85,28.85,0,0,0-6.58-3,37.56,37.56,0,0,0-7.55-19.11A37.85,37.85,0,0,0,98.9,1.43,37.1,37.1,0,0,0,86.93,0,37.76,37.76,0,0,0,58.52,15,25.69,25.69,0,0,0,55.3,14.54Z"/><text class="cls-2" transform="translate(63.62 108.8)">!</text></g></g></svg>