<svg xmlns="http://www.w3.org/2000/svg" width="18.381" height="24.507" viewBox="0 0 18.381 24.507"><defs><style>.a{fill:#babbbc;}</style></defs><path class="a" d="M21.381,22.742V2.763A2.759,2.759,0,0,0,18.633,0H5.748A2.759,2.759,0,0,0,3,2.763V22.741a1.756,1.756,0,0,0,2.772,1.44l6.29-4.476a.221.221,0,0,1,.255,0l6.29,4.476a1.756,1.756,0,0,0,2.772-1.439Zm-1.532,0a.225.225,0,0,1-.125.208.211.211,0,0,1-.229-.017l-6.29-4.476a1.752,1.752,0,0,0-2.03,0l-6.29,4.476a.213.213,0,0,1-.229.017.227.227,0,0,1-.125-.208V2.763A1.226,1.226,0,0,1,5.748,1.532H18.632a1.225,1.225,0,0,1,1.216,1.232V22.742Z" transform="translate(-3 0)"/><path class="a" d="M12.332,6.074l-.205.218-.205-.218A3.438,3.438,0,0,0,7,6.074a3.746,3.746,0,0,0,0,5.083l4.572,4.836a.768.768,0,0,0,1.113,0l4.572-4.836a3.746,3.746,0,0,0,0-5.083,3.436,3.436,0,0,0-4.923,0Zm3.81,4.03-4.015,4.248L8.112,10.1a2.194,2.194,0,0,1,0-2.977,1.825,1.825,0,0,1,2.7,0l.762.806a.791.791,0,0,0,1.113,0l.762-.806a1.867,1.867,0,0,1,2.7,0A2.194,2.194,0,0,1,16.142,10.1Z" transform="translate(-2.936 0.107)"/></svg>