<svg xmlns="http://www.w3.org/2000/svg" width="81.707" height="84.47" viewBox="0 0 81.707 84.47"><defs><style>.a{fill:#2c668d;}</style></defs><g transform="translate(-9.147 -7.765)"><path class="a" d="M30.455,49.6a4.422,4.422,0,1,0,4.422,4.424A4.428,4.428,0,0,0,30.455,49.6Zm-.672,4.424a.672.672,0,1,1,1.344,0C31.127,54.761,29.783,54.761,29.783,54.021Z"/><path class="a" d="M47.206,27.866A10.05,10.05,0,1,0,37.155,17.817,10.061,10.061,0,0,0,47.206,27.866Zm0-16.351a6.3,6.3,0,1,1-6.3,6.3A6.309,6.309,0,0,1,47.206,11.515Z"/><path class="a" d="M57.183,39.5a26.234,26.234,0,0,0-9.415-2.421,27.537,27.537,0,0,0-9.25,1.267,1.875,1.875,0,0,0,1.2,3.553,24.47,24.47,0,0,1,7.863-1.077,22.819,22.819,0,0,1,7.927,2.032,1.856,1.856,0,0,0,.833.2,1.875,1.875,0,0,0,.841-3.552Z"/><path class="a" d="M89.029,52.344c-1.813-2.025-4.277-2.278-6.683-1.772a7.205,7.205,0,0,1,3.948-2.765,1.875,1.875,0,1,0-.835-3.655A10.9,10.9,0,0,0,79.1,48.686,9.128,9.128,0,0,0,77.842,52.3c-.553.293-1.057.59-1.523.879C73.172,40.519,60.81,31.038,46.056,31.038a33.5,33.5,0,0,0-13.879,3L21.734,25.83a1.876,1.876,0,0,0-2.927,2.1l4.349,12.345a28.013,28.013,0,0,0-6.74,10.789L10.262,53.79A1.873,1.873,0,0,0,9.147,55.5v7.965a1.874,1.874,0,0,0,1.115,1.714l6.154,2.728a28.706,28.706,0,0,0,11.266,14.5l1.28,8.24a1.876,1.876,0,0,0,1.853,1.586H39.04a1.876,1.876,0,0,0,1.853-1.586l.472-3.047a33.582,33.582,0,0,0,9.382,0l.472,3.047a1.876,1.876,0,0,0,1.853,1.586H61.3a1.877,1.877,0,0,0,1.853-1.586l1.282-8.24A27.769,27.769,0,0,0,77.116,59.488c0-.754-.06-1.5-.124-2.236.354-.251.669-.494,1.09-.756.037.161.073.326.117.491.82,3.234,2.871,5.27,5.625,5.588a5.812,5.812,0,0,0,.707.04,6.5,6.5,0,0,0,5.709-3.4A5.969,5.969,0,0,0,89.029,52.344ZM61.7,79.714a1.878,1.878,0,0,0-.85,1.293l-1.165,7.478h-5.01l-.518-3.34A1.874,1.874,0,0,0,51.938,83.6a29.724,29.724,0,0,1-11.766,0,1.874,1.874,0,0,0-2.221,1.549l-.518,3.34H32.42l-1.161-7.478a1.871,1.871,0,0,0-.85-1.293A24.942,24.942,0,0,1,19.738,66,1.864,1.864,0,0,0,18.7,64.824L12.895,62.25V56.724L18.7,54.15a1.867,1.867,0,0,0,1.035-1.172,24.3,24.3,0,0,1,6.855-10.807,1.875,1.875,0,0,0,.5-2l-2.607-7.4,6.292,4.948a1.878,1.878,0,0,0,2,.2,29.608,29.608,0,0,1,13.275-3.12c15.06,0,27.31,11.082,27.31,24.7C73.366,67.52,69,75.082,61.7,79.714ZM86.908,57.489a2.723,2.723,0,0,1-2.655,1.362c-1.458-.168-2.12-1.608-2.421-2.787a11.4,11.4,0,0,1-.256-1.344c1.9-.714,3.71-.93,4.662.128C87.1,55.8,87.322,56.694,86.908,57.489Z"/></g></svg>