<svg xmlns="http://www.w3.org/2000/svg" width="428.479" height="511.997" viewBox="0 0 428.479 511.997"><defs><style>.a{fill:#2c668d;}</style></defs><g transform="translate(-41.759 0)"><path class="a" d="M424.244,180.7H407.772a157.818,157.818,0,0,0-39.661-66.009,159.9,159.9,0,0,0-50.877-34.154,41.437,41.437,0,0,0-40.995-47.482h-9.064a34.608,34.608,0,0,0-61.643-19.978,35.5,35.5,0,0,0-3.216-3.509A34.289,34.289,0,0,0,176.774.04c-18.462.875-32.925,16.39-32.925,35.321a80.064,80.064,0,0,0,23.607,56.983c.588.588,1.2,1.151,1.8,1.719A159.005,159.005,0,0,0,104.33,180.7H87.754a46,46,0,0,0,0,91.99h9.878a158.822,158.822,0,0,0,92.647,136.776,88.381,88.381,0,0,0-34.158,69.865V504.5a7.5,7.5,0,0,0,7.5,7.5H348.379a7.5,7.5,0,0,0,7.5-7.5v-25.17a88.422,88.422,0,0,0-3.083-23.2,7.5,7.5,0,0,0-14.475,3.936,73.427,73.427,0,0,1,2.558,19.262V497H171.12v-17.67a73.42,73.42,0,0,1,36.1-63.277,158.6,158.6,0,0,0,97.54.005,74.144,74.144,0,0,1,21.682,19.527,7.5,7.5,0,0,0,12.051-8.931,89.188,89.188,0,0,0-16.8-17.181,158.825,158.825,0,0,0,92.668-136.786h9.879a45.993,45.993,0,1,0,0-91.987ZM56.759,226.692a30.981,30.981,0,0,1,30.995-31h12.793a158.05,158.05,0,0,0-3.1,31.1v30.887h-9.7a31.03,31.03,0,0,1-31-30.995Zm342.788,38.5c0,79.153-64.4,143.549-143.549,143.549S112.45,344.343,112.45,265.19V226.8a143.855,143.855,0,0,1,69.463-122.976,80.566,80.566,0,0,0,9.723,5.157,7.5,7.5,0,0,0,6.109-13.7,65.647,65.647,0,0,1-38.9-59.92c0-10.727,8.359-19.851,18.632-20.338A19.6,19.6,0,0,1,198.03,34.591a7.5,7.5,0,0,0,15,0,19.59,19.59,0,1,1,39.179,0v5.96a7.5,7.5,0,0,0,7.5,7.5h16.53a26.445,26.445,0,0,1,0,52.89h-51.81c-.281,0-.551,0-.831-.007a7.5,7.5,0,0,0-.418,14.994c.421.012.829.013,1.249.013h51.81a41.464,41.464,0,0,0,36.132-21.184A144.8,144.8,0,0,1,357.5,125.294,142.649,142.649,0,0,1,399.547,226.8Zm46.618-16.577a30.8,30.8,0,0,1-21.921,9.074h-9.7V226.8a160.1,160.1,0,0,0-3.033-31.1h12.73a31,31,0,0,1,21.921,52.916Z"/><path class="a" d="M304.877,261.244a69.2,69.2,0,0,1-97.755,0,7.5,7.5,0,0,0-10.607,10.606,84.22,84.22,0,0,0,118.97,0,7.5,7.5,0,0,0-10.608-10.606Z"/><path class="a" d="M208.8,220.071a7.5,7.5,0,0,0,7.5-7.5V183.162a7.5,7.5,0,1,0-15,0v29.409A7.5,7.5,0,0,0,208.8,220.071Z"/><path class="a" d="M303.2,220.071a7.5,7.5,0,0,0,7.5-7.5V183.162a7.5,7.5,0,1,0-15,0v29.409A7.5,7.5,0,0,0,303.2,220.071Z"/></g></svg>