<svg xmlns="http://www.w3.org/2000/svg" width="70" height="70" viewBox="0 0 70 70"><defs><style>.a{fill:#d04343;}.b,.c{fill:none;stroke:#24262b;stroke-linejoin:round;stroke-width:2px;}.c{stroke-linecap:round;}</style></defs><g transform="translate(9558 -306)"><rect class="a" width="70" height="70" rx="5" transform="translate(-9558 306)"/><g transform="translate(-9540.194 323.043)"><path class="b" d="M40.413,47.74l28.47,28.47a2.881,2.881,0,0,1,0,4.074h0a2.881,2.881,0,0,1-4.074,0l-6.955-7.074a2.473,2.473,0,0,1-.711-1.733v-.427a2.473,2.473,0,0,0-.736-1.761l-.9-.829a2.473,2.473,0,0,0-2.3-.575h0a3.75,3.75,0,0,1-3.6-.976l-6.6-6.6C39.091,56.39,37.65,50.476,40.413,47.74Z" transform="translate(-38.444 -46.524)"/><path class="c" d="M60.444,32l-5.969,5.969a4.945,4.945,0,0,0-1.449,3.5v1.148a1.236,1.236,0,0,1-.363.875l-.874.874m2.473,2.473.874-.874a1.236,1.236,0,0,1,.875-.362h1.148a4.945,4.945,0,0,0,3.5-1.449l5.969-5.969m-3.091-3.091-6.182,6.182M44.99,57.964l-7.706,7.749a3.091,3.091,0,0,1-4.371,0h0a3.091,3.091,0,0,1,0-4.371l6.513-6.469" transform="translate(-32.009 -32)"/></g></g></svg>