<svg xmlns="http://www.w3.org/2000/svg" width="70" height="70" viewBox="0 0 70 70"><defs><style>.a{fill:#c44ecc;}.b{fill:#24262b;}</style></defs><g transform="translate(9720 -306)"><rect class="a" width="70" height="70" rx="5" transform="translate(-9720 306)"/><g transform="translate(-9705.155 321.218)"><path class="b" d="M249.882,61.818a2.3,2.3,0,0,0-2.618,1.909,2.29,2.29,0,1,0,2.62-1.908h0Zm.365,2.376a.729.729,0,0,1-1.309.315.721.721,0,0,1-.131-.539.729.729,0,1,1,1.44.224Zm0,0" transform="translate(-227.912 -57)"/><path class="b" d="M313.109,139.612a2.287,2.287,0,0,0,1.907,2.617,2.242,2.242,0,0,0,.354.027,2.288,2.288,0,0,0,1.851-3.637,2.273,2.273,0,0,0-1.5-.913h0A2.292,2.292,0,0,0,313.109,139.612Zm2.851-.073a.725.725,0,0,1,.132.54.733.733,0,0,1-.834.607.727.727,0,0,1,.114-1.446.711.711,0,0,1,.113.009.723.723,0,0,1,.476.29Zm0,0" transform="translate(-288.609 -126.956)"/><path class="b" d="M377.4,225.214a2.288,2.288,0,1,0-.412-1.7A2.274,2.274,0,0,0,377.4,225.214Zm1.13-1.462a.728.728,0,0,1,.718-.613.712.712,0,0,1,.113.009h0a.727.727,0,1,1-.832.6Zm0,0" transform="translate(-347.492 -204.297)"/><path class="b" d="M39.246,4.67a3.979,3.979,0,0,0-2.614-1.6l-4.389-.686A.781.781,0,0,0,32,3.927l4.389.686a2.453,2.453,0,0,1,2.037,2.792L35.9,23.522a2.444,2.444,0,0,1-2.792,2.037l-8.77-1.373V18.716a4.01,4.01,0,0,0-4.007-4H15.809L17.468,4.127a2.453,2.453,0,0,1,2.794-2.035l5.606.881a.781.781,0,1,0,.242-1.542L20.5.549a4.015,4.015,0,0,0-4.58,3.336l-1.7,10.827H4.007a4.01,4.01,0,0,0-4.007,4V35.027a4.011,4.011,0,0,0,4.007,4.006H20.332a4.011,4.011,0,0,0,4.007-4.006V25.766l8.53,1.335a4.006,4.006,0,0,0,4.576-3.338L39.97,7.648a3.974,3.974,0,0,0-.724-2.977ZM22.778,35.027a2.448,2.448,0,0,1-2.445,2.445H4.007a2.448,2.448,0,0,1-2.445-2.445V18.716a2.447,2.447,0,0,1,2.445-2.443H20.332a2.447,2.447,0,0,1,2.445,2.443V35.027Zm0,0" transform="translate(0 -0.5)"/><path class="b" d="M52.239,239.715A2.289,2.289,0,1,0,54.531,242,2.292,2.292,0,0,0,52.239,239.715Zm0,3.015a.727.727,0,1,1,.73-.727A.728.728,0,0,1,52.239,242.73Zm0,0" transform="translate(-46.045 -221.017)"/><path class="b" d="M129.032,304.5a2.29,2.29,0,1,0,2.29,2.288A2.292,2.292,0,0,0,129.032,304.5Zm0,3.018a.728.728,0,1,1,.728-.729A.729.729,0,0,1,129.032,307.514Zm0,0" transform="translate(-116.835 -280.735)"/><path class="b" d="M205.118,240.023a2.289,2.289,0,1,0,2.292,2.289A2.292,2.292,0,0,0,205.118,240.023Zm0,3.016a.727.727,0,1,1,.73-.727A.728.728,0,0,1,205.118,243.039Zm0,0" transform="translate(-186.974 -221.301)"/><path class="b" d="M52.239,377.211a2.289,2.289,0,1,0,2.292,2.288A2.292,2.292,0,0,0,52.239,377.211Zm0,3.015a.727.727,0,1,1,.73-.727A.728.728,0,0,1,52.239,380.226Zm0,0" transform="translate(-46.045 -347.766)"/><path class="b" d="M205.118,377.523a2.289,2.289,0,1,0,2.292,2.288A2.292,2.292,0,0,0,205.118,377.523Zm0,3.015a.727.727,0,1,1,.73-.727A.728.728,0,0,1,205.118,380.538Zm0,0" transform="translate(-186.974 -348.054)"/><path class="b" d="M362.648,19.952l.013,0a.781.781,0,0,0,.257-1.54l-.013,0a.781.781,0,1,0-.257,1.54Zm0,0" transform="translate(-333.701 -17.002)"/></g></g></svg>