<svg xmlns="http://www.w3.org/2000/svg" width="70" height="70" viewBox="0 0 70 70"><defs><style>.a{fill:#ece633;}.b{fill:#24262b;}</style></defs><g transform="translate(9641 -306)"><rect class="a" width="70" height="70" rx="5" transform="translate(-9641 306)"/><g transform="translate(-9661.682 281.349)"><g transform="translate(34.619 40.766)"><path class="b" d="M44.666,46.67a12.885,12.885,0,0,0-18.264,0,.466.466,0,0,0,0,.675l8.433,8.433L32.811,57.85h-16a5.537,5.537,0,0,0-1.735.337L6.933,61.271c-.193.049-.723.29-.626.772.048.337.337.482.819.482H28.185l-2.313,2.313h1.349l2.313-2.313H34.45a5.537,5.537,0,0,0,1.735-.337L39.8,60.838l4.145,4.144a.465.465,0,0,0,.674,0A12.988,12.988,0,0,0,44.666,46.67Zm-17.252.337A11.957,11.957,0,0,1,39.9,44.694l-12.048,2.8Zm1.253,1.253,12.626-2.94a13.9,13.9,0,0,1,1.4.916L31.558,51.152Zm3.614,3.663,11.276-4.964c.049,0,.049.048.1.048L35.51,55.152ZM35.51,56.5,36.86,57.85h-2.7ZM29.1,61.513H8.957l6.458-2.458a4.821,4.821,0,0,1,1.4-.289H31.847Zm6.747-.241a4.806,4.806,0,0,1-1.4.29H30.5l2.7-2.7h4.627l1.2,1.2Zm3.567-2.217-.193-.241-.964-.964-2.024-2.024,8.047-8.1c0,.048.049.048.049.1L39.944,57.85l-.433.964Zm3.614,3.614-2.217-2.217-.675-.675.1-.193.337-.771L41,57.85,45.051,48.6a8.425,8.425,0,0,1,.867,1.4L44.136,57.85,43.8,59.3Zm1.3,1.253-.482-.482,2.8-12.1A12.107,12.107,0,0,1,44.329,63.922Z" transform="translate(-6.295 -27.49)"/><path class="b" d="M23.62,19.383H20.487a8.894,8.894,0,0,0-.193-1.108h0l2.12-.867a.442.442,0,0,0,.241-.626c-.145-.241-.386-.386-.626-.241l-2.12.867a6.137,6.137,0,0,0-.626-.916L21.5,14.275a.477.477,0,1,0-.675-.675l-2.217,2.217h0a6.137,6.137,0,0,0-.916-.626l.867-2.12a.475.475,0,1,0-.867-.386l-.916,2.12h0a4.105,4.105,0,0,0-1.108-.193V11.432a.482.482,0,0,0-.964,0v3.132a8.9,8.9,0,0,0-1.108.193h0l-.867-2.12a.475.475,0,1,0-.867.386l.867,2.12a6.137,6.137,0,0,0-.916.626h0L9.6,13.552a.477.477,0,1,0-.675.675l2.217,2.217h0a6.137,6.137,0,0,0-.626.916l-2.12-.867a.475.475,0,1,0-.386.867l2.12.867h0a4.105,4.105,0,0,0-.193,1.108H6.8a.482.482,0,1,0,0,.964H9.933a8.9,8.9,0,0,0,.193,1.108h0l-2.12.867a.442.442,0,0,0-.241.626.463.463,0,0,0,.434.289.29.29,0,0,0,.193-.048l2.12-.867a6.137,6.137,0,0,0,.626.916h0L8.921,25.407a.466.466,0,0,0,0,.675.466.466,0,0,0,.675,0l2.217-2.217a6.137,6.137,0,0,0,.916.626l-.867,2.12a.478.478,0,0,0,.241.626.29.29,0,0,0,.193.048A.421.421,0,0,0,12.728,27l.867-2.12h0a4.105,4.105,0,0,0,1.108.193V28.3a.482.482,0,0,0,.964,0V25.166a8.894,8.894,0,0,0,1.108-.193h0l.867,2.12a.463.463,0,0,0,.434.289.29.29,0,0,0,.193-.048.442.442,0,0,0,.241-.626l-.867-2.12a6.137,6.137,0,0,0,.916-.626h0l2.217,2.217a.466.466,0,0,0,.675,0,.466.466,0,0,0,0-.675l-2.217-2.217h0a6.137,6.137,0,0,0,.626-.916l2.12.867a.29.29,0,0,0,.193.048A.421.421,0,0,0,22.608,23a.478.478,0,0,0-.241-.626l-2.12-.867h0a4.105,4.105,0,0,0,.193-1.108h3.132a.455.455,0,0,0,.482-.482C24.053,19.624,23.908,19.383,23.62,19.383ZM15.234,24.2a4.337,4.337,0,1,1,4.337-4.337A4.319,4.319,0,0,1,15.234,24.2Z" transform="translate(-6.307 -10.95)"/></g></g></g></svg>